<?xml version="1.0" encoding="utf-8"?>
<!-- Generator: Adobe Illustrator 24.2.3, SVG Export Plug-In . SVG Version: 6.00 Build 0)  -->
<svg version="1.1" id="圖層_1" xmlns="http://www.w3.org/2000/svg" xmlns:xlink="http://www.w3.org/1999/xlink" x="0px" y="0px"
	 viewBox="0 0 50 50" style="enable-background:new 0 0 50 50;" xml:space="preserve">
<style type="text/css">
	.st0{fill:#FFFFFF;}
</style>
<g>
	<path class="st0" d="M42.1,11.7c0,3-2.4,5.4-5.4,5.4s-5.4-2.4-5.4-5.4c0-3,2.4-5.4,5.4-5.4S42.1,8.7,42.1,11.7z"/>
	<path class="st0" d="M36.7,18.3c-3.7,0-6.7-3-6.7-6.7C30,8,33,5,36.7,5s6.7,3,6.7,6.7C43.3,15.3,40.3,18.3,36.7,18.3z M36.7,7.5
		c-2.3,0-4.2,1.9-4.2,4.2c0,2.3,1.9,4.2,4.2,4.2s4.2-1.9,4.2-4.2C40.8,9.4,39,7.5,36.7,7.5z"/>
	<path class="st0" d="M42.1,38.3c0,3-2.4,5.4-5.4,5.4s-5.4-2.4-5.4-5.4c0-3,2.4-5.4,5.4-5.4S42.1,35.3,42.1,38.3z"/>
	<path class="st0" d="M36.7,45C33,45,30,42,30,38.3c0-3.7,3-6.7,6.7-6.7s6.7,3,6.7,6.7C43.3,42,40.3,45,36.7,45z M36.7,34.2
		c-2.3,0-4.2,1.9-4.2,4.2c0,2.3,1.9,4.2,4.2,4.2s4.2-1.9,4.2-4.2C40.8,36,39,34.2,36.7,34.2z"/>
	<path class="st0" d="M18.8,25c0,3-2.4,5.4-5.4,5.4c-3,0-5.4-2.4-5.4-5.4s2.4-5.4,5.4-5.4C16.3,19.6,18.8,22,18.8,25z"/>
	<path class="st0" d="M13.3,31.7c-3.7,0-6.7-3-6.7-6.7s3-6.7,6.7-6.7c3.7,0,6.7,3,6.7,6.7S17,31.7,13.3,31.7z M13.3,20.8
		c-2.3,0-4.2,1.9-4.2,4.2s1.9,4.2,4.2,4.2c2.3,0,4.2-1.9,4.2-4.2S15.6,20.8,13.3,20.8z"/>
	<path class="st0" d="M17.3,24.2c-0.6,0-1.1-0.3-1.5-0.8c-0.5-0.8-0.2-1.8,0.6-2.3l15.5-8.8c0.8-0.5,1.8-0.2,2.3,0.6
		c0.5,0.8,0.2,1.8-0.6,2.3L18.1,24C17.8,24.1,17.5,24.2,17.3,24.2z"/>
	<path class="st0" d="M32.7,38c-0.3,0-0.6-0.1-0.8-0.2l-15.5-8.8c-0.8-0.5-1.1-1.5-0.6-2.3c0.5-0.8,1.5-1.1,2.3-0.6l15.5,8.8
		c0.8,0.5,1.1,1.5,0.6,2.3C33.9,37.6,33.3,38,32.7,38z"/>
</g>
</svg>
