<?xml version="1.0" encoding="utf-8"?>
<!-- Generator: Adobe Illustrator 24.2.3, SVG Export Plug-In . SVG Version: 6.00 Build 0)  -->
<svg version="1.1" id="圖層_1" xmlns="http://www.w3.org/2000/svg" xmlns:xlink="http://www.w3.org/1999/xlink" x="0px" y="0px"
	 viewBox="0 0 50 50" style="enable-background:new 0 0 50 50;" xml:space="preserve">
<style type="text/css">
	.st0{fill:#FFFFFF;}
</style>
<path class="st0" d="M43.6,15.6c-0.4-1.7-1.8-3-3.4-3.4c-3-0.8-15.2-0.8-15.2-0.8s-12.2,0-15.2,0.8c-1.6,0.4-3,1.8-3.4,3.5
	c-0.8,3-0.8,9.4-0.8,9.4s0,6.3,0.8,9.4c0.4,1.7,1.8,3,3.4,3.4c3.1,0.8,15.2,0.8,15.2,0.8s12.2,0,15.2-0.8c1.7-0.4,3-1.8,3.4-3.4
	c0.8-3,0.8-9.4,0.8-9.4S44.5,18.7,43.6,15.6z M21.1,30.8V19.2L31.2,25L21.1,30.8z"/>
</svg>
