<?xml version="1.0" encoding="utf-8"?>
<!-- Generator: Adobe Illustrator 24.2.3, SVG Export Plug-In . SVG Version: 6.00 Build 0)  -->
<svg version="1.1" id="圖層_1" xmlns="http://www.w3.org/2000/svg" xmlns:xlink="http://www.w3.org/1999/xlink" x="0px" y="0px"
	 viewBox="0 0 50 50" style="enable-background:new 0 0 50 50;" xml:space="preserve">
<style type="text/css">
	.st0{fill:#FFFFFF;}
</style>
<path class="st0" d="M44.3,15.3c-0.5-1.7-1.8-3.1-3.6-3.6C37.6,10.9,25,10.9,25,10.9s-12.6,0-15.8,0.8c-1.7,0.5-3.1,1.9-3.6,3.6
	C4.8,18.5,4.8,25,4.8,25s0,6.6,0.8,9.7c0.5,1.7,1.8,3.1,3.6,3.6c3.2,0.9,15.8,0.9,15.8,0.9s12.6,0,15.8-0.8c1.7-0.5,3.1-1.8,3.6-3.6
	c0.8-3.2,0.8-9.7,0.8-9.7S45.2,18.5,44.3,15.3z M21,31V19l10.5,6L21,31z"/>
</svg>
