<?xml version="1.0" encoding="utf-8"?>
<!-- Generator: Adobe Illustrator 24.2.3, SVG Export Plug-In . SVG Version: 6.00 Build 0)  -->
<svg version="1.1" id="圖層_1" xmlns="http://www.w3.org/2000/svg" xmlns:xlink="http://www.w3.org/1999/xlink" x="0px" y="0px"
	 viewBox="0 0 147 35" style="enable-background:new 0 0 147 35;" xml:space="preserve">
<style type="text/css">
	.st0{enable-background:new    ;}
	.st1{fill:#FFFFFF;}
</style>
<g class="st0">
	<path class="st1" d="M7.6,12.1c0.6-1.3,1.2-2.6,1.8-3.8c0.7,0.2,1.4,0.6,2,1c-0.4,1-0.8,2-1.1,3c2.4,0.1,4.7,0.3,7,0.6
		c0,0.6-0.1,1.3-0.3,2.1c-2.5,0-5.1-0.1-7.6-0.3c-0.8,2.1-1.7,4.2-2.5,6.3c1.2,0.5,2.4,1,3.6,1.6c0.8-1.7,1.6-3.4,2.4-5
		c0.9,0.1,1.6,0.3,2.1,0.7c-0.7,1.8-1.5,3.6-2.3,5.3c1,0.5,2,1,3,1.4c-0.2,0.7-0.5,1.3-0.9,2c-1.1-0.4-2.2-0.8-3.1-1.2
		c-0.1,0.2-0.1,0.4-0.2,0.6c-0.2,0.5-0.5,1-0.7,1.4c-0.2,0.5-0.5,1.1-0.9,1.7c-0.8-0.3-1.5-0.6-2-1.1c0.5-1.2,1-2.4,1.6-3.6
		c-2.1-1-4.1-1.9-5.8-2.9c1-2.7,2-5.1,2.9-7.4c-1.1-0.1-2.3-0.2-3.4-0.4c0-0.8,0.1-1.5,0.2-2.1C4.9,12,6.3,12,7.6,12.1z M31,6.8
		c-1.1,2.7-2.7,5.6-4.9,8.4c0.4,2,0.8,3.8,1,5.7c1.6-0.1,3.3-0.1,4.9-0.2c0.1,0.7,0.1,1.4,0.1,2.2c-1.6,0.1-3.2,0.3-4.8,0.3
		c0.3,4.1,0.5,6.4,0.5,7c-0.6,0.1-1.4,0.3-2.2,0.3c-1.2,0-2.2,0-3.1-0.1c-0.1-0.6-0.1-1.1-0.1-1.7c0.9-0.1,1.7-0.1,2.7-0.1
		c-0.1-1.7-0.3-3.5-0.4-5.2c-2.4,0.1-4.8,0.2-7.1,0.2c-0.1-0.7-0.2-1.4-0.2-2.2c2.3-0.1,4.6-0.3,7.1-0.4c-0.3-2.3-0.6-4.6-0.9-6.9
		c1.3-1.8,2.6-3.6,3.9-5.5c-3.3-0.3-6.7-0.9-10.3-1.6c0.1-0.9,0.3-1.6,0.5-2.2C22.1,5.5,26.6,6.1,31,6.8z"/>
	<path class="st1" d="M51.8,17.1c-0.5,2.4-1,4.2-1.3,5.6c0.8-0.1,1.6-0.1,2.4-0.2c0.1,0.7,0.2,1.4,0.3,2.2c-3.7,0.6-7.6,1-11.8,1.2
		c-0.1-0.6-0.3-1.4-0.3-2.3c2.1-0.3,4.4-0.5,6.7-0.7c0.4-2.4,1-4.6,1.6-6.5C50.3,16.5,51.1,16.7,51.8,17.1z M49.4,8.6
		c0,1.1-0.1,2.4-0.3,3.7c1.4,0.1,2.9,0.3,4.4,0.4c0,0.7-0.1,1.6-0.2,2.4c-4.1,0-8.1-0.3-12.1-0.9V13c0-0.4,0-0.7,0.1-1
		c1.6,0,3.2,0.1,5,0.1c0-1.6,0.2-2.8,0.4-3.7c0.4,0,0.9-0.1,1.4-0.1C48.6,8.3,49,8.4,49.4,8.6z M45.6,20.7c-0.8,0.4-1.5,0.7-2.2,0.7
		c-0.8-1.3-1.2-2.8-1.4-4.7c0.6-0.3,1.3-0.4,2.2-0.6C44.9,17.1,45.3,18.7,45.6,20.7z M69.8,19.5c0.2,1.5,0.4,3,0.4,4.4
		c0,2.9-0.1,4.8-0.1,5.6c-1.3,0.4-3.6,0.6-6.8,0.6s-5.5-0.1-6.7-0.4c-0.2-1-0.4-2.7-0.4-5.1c-0.1-1.9-0.1-3.5-0.1-4.8
		c0.3-0.1,0.8-0.1,1.4-0.2c0.6,0,1,0,1.2,0.1c0.1,2.5,0.2,5.1,0.2,7.9c1.4,0,2.9,0,4.4,0c1.5,0,2.9,0,4.1-0.2
		c-0.1-1.9-0.1-3.7-0.2-5.6c-1.4-0.1-2.8-0.1-4-0.3c-1,0-2-0.1-3.1-0.3c-0.1-0.5-0.1-0.9-0.1-1.2c0-0.4,0-0.7,0.1-1.1
		C64.1,19,67.3,19.1,69.8,19.5z M62.8,8.6c0.3,0,0.6,0,0.9,0c2.4,0,4.3,0.1,5.8,0.3c0.1,0.2,0.1,0.6,0.1,1.1c0,0.6-0.1,1-0.1,1.1
		c-0.4,0.1-2.3,0.2-5.8,0.2c-0.3,0-0.6,0-0.8,0c0.1,2.1,0.1,4.1,0.2,6.1c-0.3,0.1-0.7,0.2-1.3,0.2c-0.5,0-0.9,0-1.2-0.1
		c-0.4-4.2-0.7-8.4-0.7-12.5c0.5-0.1,0.9-0.2,1.4-0.2h1.3C62.6,6.2,62.7,7.4,62.8,8.6z"/>
	<path class="st1" d="M86.6,16.6c-0.4,1.8-1.2,3.7-2.2,5.8c1.1,0.2,2.3,0.5,3.6,0.7c-0.3,1.9-0.8,3.9-1.4,5.9c2,0.1,4.1,0.3,6.2,0.5
		c0,0.7-0.1,1.4-0.4,2.1c-2.9-0.1-5.9-0.4-8.7-0.9c0.4-2.1,0.9-4.1,1.3-6c-1.6-0.4-2.8-0.7-3.9-1c0.7-1.9,1.4-3.7,2.1-5.4
		c-1.5-0.2-2.9-0.4-4.3-0.6c0-0.7,0.1-1.4,0.3-2.3C82,15.8,84.5,16.1,86.6,16.6z M86.5,10.1c-0.2,0.7-0.5,1.4-0.9,2.1
		c-2.1-0.1-3.9-0.7-5.5-1.7c0.1-0.8,0.4-1.5,0.7-2.1C82.6,8.5,84.5,9.1,86.5,10.1z M96.8,15.5v-2.4c-0.9,0-1.7-0.1-2.4-0.1
		c-0.1-0.2-0.1-0.6-0.1-1.1c0-0.4,0-0.7,0.1-1h2.4c0-0.7,0-1.3,0.1-2c-2.2-0.2-4.4-0.4-6.6-0.8c0-0.8,0.1-1.6,0.3-2.2
		c2.2,0.1,4.3,0.3,6.4,0.5c0-1,0.1-1.9,0.1-2.8c0.4-0.2,0.8-0.3,1.1-0.3c0.4,0,0.9,0.1,1.3,0.3c0,1,0,2.1,0.1,3.1
		c2,0.2,4,0.4,5.9,0.6c0,0.6-0.1,1.3-0.3,2.1c-1.9,0-3.7,0-5.6-0.2c0,0.6,0,1.2,0,1.8c2.3,0.1,4.4,0.1,6.5,0.2
		c0.1,0.7,0.3,2.7,0.3,5.8c0,2.7-0.1,4.2-0.3,4.6c-1.4,0.3-3.6,0.4-6.6,0.5c0,0.7-0.1,1.4-0.1,2.1c1.6-0.1,3.2-0.1,4.8-0.1
		c0.1,0.3,0.1,0.6,0.1,0.9c0,0.4-0.1,0.7-0.1,1c-1,0.2-2.7,0.4-4.9,0.6c-0.1,1.1-0.1,2.3-0.1,3.3c-0.3,0-0.7,0.1-1.2,0.1
		c-0.5,0-0.9,0-1.1-0.1c0-1,0-2,0-3.1c-1.6,0.1-3.3,0.2-5.3,0.3c-0.4-0.5-0.5-1.3-0.5-2.3c2-0.2,4-0.4,5.9-0.6c0-0.7,0-1.4,0-2.2h-1
		c-2.8,0-4.9-0.2-6-0.7c-0.2-1.1-0.3-2.4-0.3-4.1V12c0.4-0.1,0.8-0.1,1.3-0.1c0.4,0,0.9,0,1.2,0.1c0.2,3,0.3,5.5,0.3,7.7
		c0.4,0.1,1.6,0.2,3.4,0.2h0.9v-2c-1.1-0.1-2.1-0.2-3.1-0.3v-1.1c0-0.3,0-0.6,0.1-1C94.7,15.4,95.7,15.5,96.8,15.5z M103.7,19.7
		c0.1-0.7,0.1-1.6,0.1-2.7c0-1,0-2.3-0.1-3.7c-1.4,0-2.8,0-4.1,0v2.4c0.7,0.1,1.4,0.1,2.1,0.2c0,0.7-0.1,1.4-0.2,2.2
		c-0.7,0-1.3,0-1.9,0c0,0.6,0,1.2,0,1.8C101.7,19.9,103,19.8,103.7,19.7z"/>
	<path class="st1" d="M122.8,5.7c-1.5,2.4-3.1,4.8-4.8,7.3c1,0.5,2,1,3,1.5c0.6-1,1.2-1.9,1.9-2.9c0.7,0.3,1.5,0.7,2.1,1.1
		c-1.5,2.6-2.8,5-4,7.2c0.7,0.3,1.7,0.4,3.1,0.4c0-0.7-0.1-1.4-0.1-2.1c0.6-0.1,1.2-0.2,2-0.3c0.3,1.3,0.4,2.7,0.4,4.2
		c-0.3,0.2-1.1,0.3-2.5,0.3c-2.7,0-4.8-0.3-6.1-0.9c0.4-1.4,1-3,1.9-4.7c-2-0.8-3.8-1.7-5.5-2.7c2-3.5,4.2-6.6,6.4-9.4
		C121.4,4.9,122.1,5.2,122.8,5.7z M118,24.7c0,1.1-0.1,2.4-0.2,3.8c-0.3,0.1-0.7,0.1-1.2,0.1c-0.6,0-1-0.1-1.2-0.3
		c0-1.7,0.1-3,0.2-3.8c0.4,0,0.8-0.1,1.3-0.1C117.2,24.4,117.6,24.5,118,24.7z M122.8,28.1c-0.7,0.4-1.3,0.6-2,0.7
		c-0.6-0.9-1-2.1-1.1-3.5c0.5-0.3,1.2-0.4,1.9-0.6C122.2,25.4,122.6,26.6,122.8,28.1z M126.6,26.8c-0.6,0.4-1.2,0.6-1.9,0.6
		c-0.6-0.8-0.9-1.8-1-3c0.5-0.2,1.1-0.4,1.8-0.5C126,24.5,126.4,25.5,126.6,26.8z M136.7,4.3c0.1,1.2,0.1,2.3,0.2,3.4
		c2.3,0.2,4.6,0.4,6.9,0.6c0,0.7-0.1,1.5-0.2,2.1c-2.2,0-4.4,0-6.6-0.1c0.1,1.6,0.1,3.1,0.1,4.6c1.7,0,3.1,0.1,4.2,0.2
		c0.1,0.2,0.1,0.6,0.1,1.1c0,0.6-0.1,0.9-0.1,1.1c-0.4,0.1-2.1,0.2-5.4,0.2c-4.3,0-6.6,0-7-0.2c-0.1-0.3-0.1-0.7-0.1-1.1
		c0-0.4,0-0.8,0.2-1.1c1.7-0.1,3.5-0.1,5.4-0.1c-0.1-1.6-0.3-3.1-0.4-4.7c-2.4-0.1-4.7-0.4-7-0.7c0-0.8,0.1-1.5,0.2-2.3
		c2.2,0.1,4.5,0.1,6.7,0.3c0-1,0-2.1,0-3.1c0.4,0,0.9-0.1,1.5-0.1C135.9,4.3,136.3,4.3,136.7,4.3z M142.6,21.3
		c0.2,1.4,0.4,2.8,0.4,4.2c0,2.4,0,3.8-0.1,4.6c-1.2,0.4-3.4,0.6-6.5,0.6c-3,0-5-0.1-6.2-0.4c-0.2-0.9-0.4-2.3-0.5-4.4
		c-0.1-1.6-0.1-3-0.1-4.1c0.3-0.1,0.8-0.1,1.3-0.2c0.6,0,1,0,1.2,0.1c0.1,2.1,0.2,4.3,0.2,6.7c1.3,0.1,2.6,0.1,4,0.1
		c1.4,0,2.7-0.1,3.9-0.2c-0.1-1.5-0.1-3-0.2-4.6c-1.1-0.1-2.2-0.1-3.2-0.2c-0.8,0-1.7-0.1-2.5-0.4c-0.1-0.4-0.1-0.8-0.1-1.1
		c0-0.4,0-0.7,0.1-1C137.8,20.8,140.6,21,142.6,21.3z"/>
</g>
</svg>
