<?xml version="1.0" encoding="utf-8"?>
<!-- Generator: Adobe Illustrator 24.2.3, SVG Export Plug-In . SVG Version: 6.00 Build 0)  -->
<svg version="1.1" id="圖層_1" xmlns="http://www.w3.org/2000/svg" xmlns:xlink="http://www.w3.org/1999/xlink" x="0px" y="0px"
	 viewBox="0 0 150 40" style="enable-background:new 0 0 150 40;" xml:space="preserve">
<style type="text/css">
	.st0{fill:#FFFFFF;}
</style>
<g>
	
		<image style="overflow:visible;opacity:8.000000e-02;" width="202" height="91" xlink:href="23926EB7C060D578.png"  transform="matrix(1 0 0 1 -25.991 -23.5078)">
	</image>
	<g>
		<path class="st0" d="M18.1,21.6L18.1,21.6c-0.4-0.1-0.7-0.2-1.2-0.2h0c-0.6,0.1-1,0.2-1.2,0.2l-0.1,0v0.1c0,2.4,0.1,4.7,0.2,7
			c-2.4,0.1-4.2,0.2-5.9,0.4c0-0.2,0-0.4,0-0.6c0-0.2,0-0.5,0-0.8c1.4-0.1,2.7-0.3,4.1-0.6l0.1,0v-0.1c0-0.6,0-1.2-0.1-1.8l0-0.1
			l-0.1,0c-1.5,0.1-2.7,0.3-3.9,0.5c0-0.6-0.1-1.2-0.1-1.7c1.4,0,2.8-0.2,4.3-0.4l0.1,0v-0.1c0-0.6,0-1.2-0.1-1.8l0-0.1l-0.1,0
			c-1.6,0.1-3,0.2-4.3,0.4c0-0.5-0.1-0.9-0.1-1.4c7.5-0.1,14.9-0.4,22.1-0.9l0.1,0v-0.1c0-0.1,0-0.2,0-0.3c0-0.2,0-0.5,0-0.8
			c0-0.4,0-0.8-0.1-1l0-0.1l-0.1,0c-9.8,0.3-18.8,0.6-26.6,1l-0.1,0v0.1c0,0.8,0,1.5,0.1,2.1l0,0.1h0.1c0.5,0,1.1,0,1.7,0
			c0,2.8,0.2,5.8,0.5,9.1c-0.2,0-0.4,0.1-0.5,0.1c-0.2,0-0.4,0.1-0.6,0.1l-0.1,0v0.1c0,0.9,0.1,1.5,0.2,2.1l0,0.1h0.1
			c3,0,6.1-0.3,9.6-0.8l0,0.2c0.1,0.8,0.1,1.6,0.2,2.5l0,0.1l0.1,0c0.2,0,0.6,0.1,1.2,0.1c0.5,0,0.9-0.1,1.2-0.2l0.1,0v-0.1
			C18.9,29.6,18.6,25.5,18.1,21.6L18.1,21.6z M8.6,15.8L8.6,15.8l0.1,0.1c0.2,0.2,0.7,0.2,1.3,0.2c0.6,0,1,0,1.3-0.2l0.1,0l0-0.1
			c0-2.9,0-5.6,0-8V7.8l-0.1,0c-0.4-0.1-0.8-0.2-1.2-0.2c-0.5,0-1,0-1.3,0.1l-0.1,0v0.1c0,0.8,0,1.7,0,2.7
			C8.6,11.9,8.6,13.7,8.6,15.8z M22.3,13.3c-1.2-0.1-2.8-0.2-4.5-0.2c-1.8,0-3.4,0-4.8,0.1l-0.1,0l0,0.1c-0.1,0.3-0.2,0.6-0.2,1
			c0,0.4,0,0.8,0.1,1l0,0l0,0c0.2,0.1,1.1,0.2,4.9,0.2c2.9,0,4.2,0,4.5-0.2l0,0l0,0c0.1-0.2,0.1-0.5,0.1-1c0-0.4,0-0.7-0.1-0.9
			L22.3,13.3L22.3,13.3z M22.6,11.9L22.6,11.9c0.1-0.2,0.1-0.5,0.1-1c0-0.5,0-0.8-0.1-1l0-0.1l-0.1,0c-1.2-0.1-2.8-0.2-4.5-0.2
			c-2,0-3.7,0-5.4,0.1l-0.1,0l0,0.1c-0.1,0.3-0.2,0.6-0.2,1c0,0.4,0,0.7,0.1,1l0,0.1l0.1,0c0.3,0.1,1.8,0.2,5.5,0.2
			C21,12.1,22.3,12.1,22.6,11.9L22.6,11.9z M24.9,8.6c-0.2,2.2-0.4,4.5-0.6,6.8l0,0.1l0.1,0c0.6,0.2,1.3,0.3,2,0.3h0.1l0-0.1
			c0.7-3.4,1.1-6.6,1.1-9.5V6.2l-0.1,0c-4.9-0.5-9.8-0.9-14.9-1l-0.1,0l0,0.1c-0.1,0.7-0.2,1.3-0.2,2.2v0.1l0.1,0
			C17,8.1,21.1,8.4,24.9,8.6z M28.7,28.3l-0.1,0c0.9-2.1,1.4-4.1,1.7-6.2l0-0.1l-0.1,0c-1.8-0.1-5.1-0.3-9.7-0.3l-0.1,0l0,0.1
			c-0.1,0.5-0.2,1.1-0.2,2v0.1l0.1,0c2,0.1,4.1,0.2,6.7,0.3c-0.5,1.3-0.9,2.4-1.3,3.5c-0.5-0.1-1-0.2-1.5-0.3
			c-0.8-0.2-1.6-0.4-2.5-0.6l-0.1,0l0,0.1c-0.3,0.6-0.6,1.4-0.8,2.1l0,0.1l0.1,0c1.1,0.3,2.5,0.7,3.9,1c-0.3,0.7-0.5,1.4-0.9,2.3
			l0,0.1l0.1,0c0.8,0.4,1.5,0.6,2.2,0.6h0.1l1.3-2.5c1,0.2,2,0.4,3.2,0.7l1,0.2l0-0.1c0.3-0.6,0.6-1.3,0.8-2.1l0-0.1l-0.1,0
			C31.1,29,29.9,28.6,28.7,28.3z M55.7,18.1L55.7,18.1c-0.9-0.1-1.7-0.2-2.6-0.2c0.5-1.2,1-2.8,1.6-4.9l0-0.1l-0.1,0
			c-0.7-0.4-1.5-0.6-2.3-0.7l-0.1,0l0,0.1c-0.8,1.6-1.5,3.5-2.1,5.6c-3.2,0-6,0.1-8.6,0.1l-0.1,0l0,0.1c-0.2,0.4-0.2,0.8-0.2,1.2
			c0,0.6,0,0.9,0.2,1.2l0,0.1l0.1,0c0.5,0.1,2.7,0.2,8.7,0.2c3.8,0,5.2-0.1,5.6-0.2l0,0l0,0c0.1-0.2,0.2-0.6,0.2-1.2
			C55.9,18.7,55.8,18.3,55.7,18.1L55.7,18.1z M51,28.1c0-0.5-0.1-1-0.1-1.5c1.1,0,2.2,0,3.4,0h0.1l0-0.1c0.1-0.4,0.3-0.9,0.3-1.4
			v-1.3l-0.2,0c-1.2,0-2.5-0.1-3.7-0.1c-0.1-0.7-0.1-1.5-0.2-2.3l0-0.1l-0.1,0c-0.3-0.1-0.7-0.2-1.2-0.2h0c-0.9,0.1-1.2,0.2-1.3,0.2
			l-0.1,0v2.3c-1.6,0-3.5-0.1-5.3-0.1h-0.1l0,0.1c-0.1,0.4-0.1,0.8-0.1,1.2c0,0.5,0.1,0.9,0.2,1.3l0,0.1l0.1,0
			c1.7,0.1,3.5,0.2,5.3,0.2c0,0.5,0,1.1,0.1,1.7c-2.2,1.1-4.2,2.2-6.1,3.3l-0.1,0.1l0,0.1c0.2,0.7,0.6,1.3,1.2,1.9l0.1,0.1l0.1,0
			c1.6-0.7,3.3-1.5,5-2.4c0,1.1,0.1,2.2,0.2,3.3l0,0.1l0.1,0c0.2,0,0.7,0.1,1.3,0.1c0.4,0,0.8,0,1.3-0.2l0.1,0v-0.1
			c0-0.6,0-1.2,0-1.8c0-0.5,0-1.1,0-1.6c1.1,0.4,2.3,0.7,3.7,0.9l0.1,0l0-0.1c0.3-0.7,0.6-1.5,0.7-2.2l0-0.1l-0.1,0
			C54,28.9,52.5,28.4,51,28.1z M44,17L44,17c0.8-0.1,1.5-0.3,2.2-0.7l0.1,0l0-0.1c-0.3-1.9-0.8-3.2-1.4-4.1l0-0.1l-0.1,0
			c-0.8,0.1-1.4,0.3-2.1,0.6l-0.1,0l0,0.1C42.7,14.4,43.2,15.8,44,17L44,17z M55.8,8.7L55.8,8.7c-1.5-0.2-3.2-0.3-5.1-0.3
			c0.1-1,0.2-1.9,0.2-2.7V5.6l-0.1,0c-0.4-0.2-0.8-0.2-1.3-0.2c-0.5,0-0.9,0-1.3,0.1l-0.1,0l0,0.1c-0.2,0.7-0.3,1.7-0.3,2.9
			c-1.9,0-3.6,0.1-5.1,0.1l-0.1,0l0,0.1c-0.2,0.4-0.2,0.9-0.2,1.3c0,0.5,0,1,0.1,1.3l0,0.1l0.1,0c0.4,0.1,2.3,0.2,7.3,0.2
			c4,0,5.5-0.1,5.9-0.2l0,0l0,0c0.1-0.2,0.2-0.7,0.2-1.2C55.9,9.5,55.9,9.1,55.8,8.7L55.8,8.7z M59,13.1L59,13.1l0.1,0.1
			c3.6-0.3,7.2-0.9,10.6-1.9l0.1,0v-0.1c0-0.7-0.1-1.3-0.5-2.1l0-0.1l-0.1,0c-3.9,0.4-7.4,1-10.6,1.9l-0.1,0l0,0.1
			C58.6,11.7,58.7,12.4,59,13.1z M61.8,19.3c0.3-1.4,0.6-2.6,0.8-3.4l0.1-0.4l-0.1,0c-0.7-0.4-1.5-0.7-2.4-0.8l-0.1,0l0,0.1
			c-1.6,5.7-2.6,10.4-3.2,14.3l0,0.1l0.1,0c0.7,0.4,1.4,0.6,2.3,0.8l0.1,0l0-0.1c0.7-3.2,1.4-5.9,1.9-8.1c1,0.1,2.1,0.2,3.2,0.3
			c0,3.8,0.3,7.3,0.7,10.7l0,0.1h0.1c0.1,0,0.3,0,0.4,0c0.2,0,0.4,0,0.7,0c0.4,0,0.8,0,1.2-0.2l0.1,0v-0.1c0-3.2-0.1-6.6-0.4-10.4
			c1.1,0.1,2.2,0.1,3.3,0.1h0.1l0-0.1c0.1-0.7,0.2-1.4,0.2-2.1V20l-0.1,0C67.8,19.7,64.7,19.5,61.8,19.3z M81.1,8.4L81.1,8.4L81,8.5
			c-0.3,0.7-0.6,1.5-0.8,2.3l0,0.1l0.1,0c1.5,1,3.3,1.6,5.4,1.8l0.1,0l0-0.1c0.4-0.7,0.7-1.4,0.9-2.2l0-0.1l-0.1,0
			C84.6,9.3,82.8,8.7,81.1,8.4z M106.3,16.2L106.3,16.2c-1.7-0.2-3.5-0.3-5.4-0.3h-2.2c-0.1-1.6-0.2-3.3-0.3-5l0-0.2
			c2-0.3,4.3-0.7,6.8-1.2l0.1,0V9.3c0-0.8-0.1-1.5-0.3-2.3l0-0.1l-0.1,0c-5.6,0.6-11,1.3-16,2.1l-0.1,0v0.1c0,1.1,0.2,1.8,0.5,2.4
			l0,0.1l0.1,0c1.8-0.1,3.9-0.2,6-0.5c0,1.8,0,3.4,0.1,4.8c-2.5,0-5,0.1-7.2,0.1l-0.1,0l0,0.1c-0.2,0.4-0.2,0.8-0.2,1.2
			c0,0.5,0,0.9,0.2,1.2l0,0.1l0.1,0c0.6,0.1,3.3,0.2,7.5,0.2c0.1,1.2,0.2,2.4,0.4,3.9c-0.6,0-1.1,0-1.7-0.1l-0.1,0l0,0.1
			c-0.1,0.7-0.1,1.4-0.1,2.1V25l0.1,0c2.4,0.4,5.2,0.6,8.2,0.8c-0.2,2-0.3,3.8-0.3,5.3c-2.8,0-5.9-0.1-9.1-0.1l-0.5,0
			c-0.2-2.5-0.4-4.8-0.7-7.1l0-0.1h-0.1c-0.8,0-1.6,0.1-2.3,0.1l-0.1,0l0,0.1c0.1,3.5,0.3,6.5,0.8,8.9l0,0.1l0.1,0
			c1.7,0.5,3.7,0.7,6,0.7c4.3,0,7.3-0.2,8.4-0.5l0.1,0l0-0.1c0.5-2.1,0.7-5.4,0.7-9.8v-0.1l-0.1,0c-1.9-0.2-3.8-0.3-6.2-0.5
			c0-1.3,0-2.6-0.1-4l0-0.1h2.1c3.7,0,5.1-0.1,5.4-0.2l0,0l0,0c0.1-0.2,0.2-0.6,0.2-1.2C106.5,16.8,106.4,16.4,106.3,16.2
			L106.3,16.2z M84.6,27.3L84.6,27.3l-0.1,0c-1.6,0.5-3.2,1.3-4.7,2.3l-0.1,0.1l0,0.1c0.3,0.7,0.7,1.4,1.2,2.1l0,0.1l0.1,0
			c1.7-0.4,3.3-1.1,4.6-2.2l0.1-0.1l0-0.1C85.5,28.7,85.1,28,84.6,27.3z M82.9,21.1L82.9,21.1c0.3-0.8,0.5-1.6,0.5-2.5v-0.1l-0.1,0
			C81.2,18.1,79.5,18,78,18h-0.1l0,0.1c-0.2,0.7-0.3,1.5-0.3,2.3v0.1l0.1,0C78.9,20.9,80.5,21.1,82.9,21.1L82.9,21.1z M145,18.5
			c-1.9-0.3-3.7-0.5-5.6-0.7c0.4-1.2,0.8-2.4,1.2-3.5l0.1-0.2l-0.1-0.1c-0.6-0.4-1.3-0.6-2.3-0.8l-0.1,0l0,0.1
			c-0.5,1.3-1.1,2.7-1.7,4.2c-1.5-0.1-2.9-0.3-4.4-0.3l-0.1,0l0,0.1c-0.3,0.7-0.4,1.4-0.4,2.2v0.1l0.1,0c1.2,0.2,2.5,0.4,3.8,0.5
			c-1.2,3.1-2.4,6.4-3.5,9.7l0,0.1L132,30c0.6,0.6,1.3,0.9,2.1,1l0.1,0l0-0.1c1.6-3.5,3-7,4.2-10.4c1.2,0.2,2.5,0.4,3.8,0.5
			c0,2-0.1,4.1-0.2,6.1h-2.2l0,0.1c-0.1,0.3-0.2,0.6-0.2,0.9c0,0.3,0,0.6,0.1,0.9l0,0.1l0.1,0c0.8,0.2,1.7,0.3,2.8,0.3
			c1.1,0,1.6-0.1,1.8-0.2l0,0l0,0c0.3-1.2,0.5-3,0.6-5.7v-5L145,18.5z M123.6,11.1c-0.1-0.6-0.1-1.3-0.1-2.1
			c1.3-0.1,2.7-0.2,4.2-0.4l0.1,0l0-0.1c-0.1-0.9-0.2-1.6-0.3-2.2l0-0.1l-0.1,0c-3.7,0.2-7.3,0.5-10.6,0.8l-0.1,0l0,0.1
			c0.1,1,0.2,1.7,0.4,2.3l0,0.1l0.1,0c1.3,0,2.5-0.1,3.8-0.2c0,0.6,0,1.2,0,1.8c-2.3-0.1-4.6-0.1-6.9-0.1H114l0,0.1
			c-0.1,0.3-0.1,0.7-0.1,1c0,0.4,0,0.8,0.2,1.2l0,0.1l0.1,0c2.7,0.3,4.9,0.4,6.9,0.5c0,0.6,0,1.2,0.1,1.8c-2.3,0-4.3,0.1-5.6,0.2
			l-0.1,0l0,0.1c-0.1,1.1-0.1,2.1-0.1,3c0,2.5,0,4.4,0.1,6l0,0.1l0.1,0c1.9,0.2,4,0.3,6.1,0.3c0,0.4,0,0.8,0.1,1.2
			c-1.8,0-3,0.1-3.9,0.3l-0.1,0v0.1c0,0.7,0.1,1.5,0.2,2.1l0,0.1h3.9c0,0.4,0,0.9,0.1,1.4h-2.1c-1.9,0-2.7,0.1-2.9,0.1l-0.1,0l0,0.1
			c-0.1,0.3-0.2,0.7-0.2,1.2c0,0.5,0.1,0.8,0.2,1.1l0,0.1l0.1,0c0.5,0.1,1.5,0.1,2.7,0.1c4.4,0,7.7-0.1,9.7-0.2l0.1,0l0-0.1
			c0-0.3,0.1-0.7,0.1-1.1c0-0.4-0.1-0.7-0.1-1.1l0-0.2h-0.1c-1.2,0-2.6,0-4.2-0.1l-0.8,0c0-0.2,0-0.4,0-0.7c0-0.2,0-0.5,0-0.8
			c1.3,0,2.4,0,3.5-0.1l0.1,0v-2.3l-0.1,0c-1.1-0.1-2.3-0.2-3.6-0.2c0-0.2,0-0.4,0-0.5c0-0.2,0-0.4,0-0.6h1c2.4,0,3.7-0.1,4.6-0.2
			l0.1,0l0-0.1c0.2-0.9,0.2-1.9,0.2-3.1c0-2.2-0.1-4.3-0.1-6.1l0-0.1l-0.1,0c-1.6-0.1-3.5-0.2-6.1-0.3c0-0.5-0.1-1.1-0.1-1.6
			c2.1,0.1,4.4,0.2,7.4,0.2h0.1l0-0.1c0.2-0.4,0.2-0.8,0.2-1.2v-1.1l-0.1,0C129,11.4,126.5,11.2,123.6,11.1z M118.1,18.2h3.2
			c0,0.3,0,0.6,0,0.9h-1.1c-0.8,0-1.5,0.1-2.1,0.1V18.2z M118.1,22.7v-1h3.3c0,0.4,0,0.7,0.1,1H118.1z M127.3,18.2v4.5h-3.1
			c0-0.3,0-0.7,0-1c0.3,0,0.6,0,0.9,0c0.3,0,0.6,0,0.9,0h0.1v-2.2l-0.1,0c-0.4,0-0.8-0.1-1.2-0.1c-0.2,0-0.5,0-0.7-0.1
			c0-0.3-0.1-0.7-0.1-1H127.3z"/>
	</g>
</g>
</svg>
