<?xml version="1.0" encoding="utf-8"?>
<!-- Generator: Adobe Illustrator 24.2.3, SVG Export Plug-In . SVG Version: 6.00 Build 0)  -->
<svg version="1.1" id="圖層_1" xmlns="http://www.w3.org/2000/svg" xmlns:xlink="http://www.w3.org/1999/xlink" x="0px" y="0px"
	 viewBox="0 0 147.1 33" style="enable-background:new 0 0 147.1 33;" xml:space="preserve">
<style type="text/css">
	.st0{enable-background:new    ;}
	.st1{fill:#FFFFFF;}
</style>
<g class="st0">
	<path class="st1" d="M6.9,11c0.6-1.3,1.2-2.6,1.8-3.8c0.7,0.2,1.4,0.6,2,1c-0.4,1-0.8,2-1.1,3c2.4,0.1,4.7,0.3,7,0.6
		c0,0.6-0.1,1.3-0.3,2.1c-2.5,0-5.1-0.1-7.6-0.3c-0.8,2.1-1.7,4.2-2.5,6.3c1.2,0.5,2.4,1,3.6,1.6c0.8-1.7,1.6-3.4,2.4-5
		c0.9,0.1,1.6,0.3,2.1,0.7c-0.7,1.8-1.5,3.6-2.3,5.3c1,0.5,2,1,3,1.4c-0.2,0.7-0.5,1.3-0.9,2c-1.1-0.4-2.2-0.8-3.1-1.2
		c-0.1,0.2-0.1,0.4-0.2,0.6c-0.2,0.5-0.5,1-0.7,1.4c-0.2,0.5-0.5,1.1-0.9,1.7c-0.8-0.3-1.5-0.6-2-1.1c0.5-1.2,1-2.4,1.6-3.6
		c-2.1-1-4.1-1.9-5.8-2.9c1-2.7,2-5.1,2.9-7.4c-1.1-0.1-2.3-0.2-3.4-0.4c0-0.8,0.1-1.5,0.2-2.1C4.1,10.8,5.5,10.9,6.9,11z M30.2,5.6
		c-1.1,2.7-2.7,5.6-4.9,8.4c0.4,2,0.8,3.8,1,5.7c1.6-0.1,3.3-0.1,4.9-0.2c0.1,0.7,0.1,1.4,0.1,2.2c-1.6,0.1-3.2,0.3-4.8,0.3
		c0.3,4.1,0.5,6.4,0.5,7c-0.6,0.1-1.4,0.3-2.2,0.3c-1.2,0-2.2,0-3.1-0.1c-0.1-0.6-0.1-1.1-0.1-1.7c0.9-0.1,1.7-0.1,2.7-0.1
		c-0.1-1.7-0.3-3.5-0.4-5.2c-2.4,0.1-4.8,0.2-7.1,0.2c-0.1-0.7-0.2-1.4-0.2-2.2c2.3-0.1,4.6-0.3,7.1-0.4c-0.3-2.3-0.6-4.6-0.9-6.9
		c1.3-1.8,2.6-3.6,3.9-5.5c-3.3-0.3-6.7-0.9-10.3-1.6c0.1-0.9,0.3-1.6,0.5-2.2C21.4,4.3,25.8,4.9,30.2,5.6z"/>
	<path class="st1" d="M51.8,2.6c0-0.7,0-1.3,0.1-1.9c0.4,0,0.8-0.1,1.3-0.1s0.9,0.1,1.4,0.1v2c2.5,0.1,5.3,0.4,8.4,0.7
		c0.2,1,0.3,2.4,0.4,4.1c0.9,0.1,1.9,0.1,2.7,0.2v1c0,0.5,0,0.9-0.1,1.1c-0.9,0-1.8,0-2.7,0c-0.1,1.6-0.2,2.8-0.5,3.4
		c-0.6,0.5-1.9,0.7-3.9,0.7c-1.7,0-3.1,0-4.5-0.1c0,0.5,0,1,0,1.4c1.4,0,2.9-0.1,4.3-0.1c0.1,0.7,0.1,1.5,0.1,2.3
		c-1.6,0.1-3.1,0.2-4.6,0.2c0,0.5-0.1,1-0.1,1.5c1.9,0,3.9-0.1,6-0.1c0,0.3,0.1,0.6,0.1,1v1c-5,0.4-9.9,0.6-14.8,0.6
		c-0.1-0.7-0.2-1.4-0.2-2.1c2-0.1,4.1-0.2,6.3-0.3c0-0.5,0-1,0-1.5c-0.9,0-1.8,0-2.7,0c-0.2-0.7-0.3-1.5-0.3-2.3
		c1,0,1.9-0.1,2.9-0.1v-1.8c-1.2-0.1-2.2-0.3-3.1-0.5c-0.1-0.3-0.1-0.6-0.1-1c0-0.5,0-0.8,0.2-1c1,0.1,2.1,0.1,3.1,0.1
		c0-0.6,0-1.1,0-1.6c-3.1-0.1-5.9-0.3-8.3-0.5C43.2,9,43.1,8.6,43.1,8c0-0.3,0-0.7,0.2-1.1c2.7,0,5.5,0,8.2,0.1c0-0.7,0-1.3,0.1-1.9
		c-2-0.1-4.1-0.3-6.2-0.5c0-0.9,0-1.6,0.2-2.1C47.4,2.5,49.5,2.5,51.8,2.6z M61.6,23.2c0.2,0.7,0.3,2.2,0.3,4.6
		c0,1.9-0.1,3.3-0.1,4.2c-1.4,0.2-3.9,0.4-7.3,0.4c-2.3,0-4.5-0.2-6.6-0.6c-0.3-0.7-0.5-2-0.5-3.9c0-0.9,0.1-2.4,0.4-4.6
		c0.3-0.1,0.7-0.1,1.1-0.1c0.4,0,0.7,0.1,1.1,0.1V26c1.7,0.1,3.3,0.3,4.8,0.5c-0.1,0.3-0.1,0.7-0.1,1c0,0.4-0.1,0.8-0.2,1
		c-1,0-1.9-0.1-2.9-0.2c-0.6-0.1-1.1-0.1-1.6-0.2v1.6c3.1,0.2,6.1,0.3,9.2,0.3c0.1-0.5,0.2-1.2,0.2-2.2c0-0.7,0-1.5-0.1-2.4
		c-3.9-0.2-6.2-0.4-7.2-0.6c-0.1-0.2-0.2-0.6-0.2-1.1c0-0.3,0-0.7,0-1C55.2,22.7,58.4,22.9,61.6,23.2z M54.5,9.7c0,0.6,0,1.1,0,1.7
		c2,0.1,4,0.1,6,0.1c0-0.6,0-1.1,0-1.7C58.3,9.8,56.3,9.8,54.5,9.7z M54.5,7.2c1.9,0.1,3.9,0.1,5.8,0.3c0-0.6,0-1.2,0-1.8
		c-1.9-0.1-3.8-0.1-5.8-0.3C54.5,6,54.5,6.6,54.5,7.2z"/>
	<path class="st1" d="M89.5,14.8c-0.4,1.2-0.7,2.2-0.9,2.9c0.4,0,0.8,0.1,1.2,0.1c0.1,0.2,0.1,0.6,0.1,1.1c0,0.6,0,1-0.1,1.1
		c-0.3,0.1-1.7,0.1-4.1,0.1c0,1.2,0.1,2.4,0.1,3.6c1.9,0.1,3.7,0.3,5.6,0.5c0,0.7-0.1,1.4-0.2,2c-1.8,0-3.6,0-5.3-0.1
		c0,1.3,0,2.5,0,3.7c-0.3,0.1-0.7,0.2-1.2,0.2c-0.5,0-0.9,0-1.1-0.1c-0.1-1.4-0.2-2.7-0.3-4c-2.1-0.1-4.2-0.3-6.2-0.5
		c0-0.7,0.1-1.5,0.3-2.2c1.9,0.1,3.9,0.1,5.8,0.3c0-1.2-0.1-2.3-0.1-3.4c-2.4,0-3.7-0.1-4-0.1c-0.1-0.3-0.1-0.7-0.1-1.2
		c0-0.4,0-0.7,0.1-1.1c1.6-0.1,3.4-0.1,5.3-0.1h1.6c0.3-1.3,0.7-2.4,1.1-3.5C88.1,14.2,88.8,14.4,89.5,14.8z M83.7,1.8
		c0.4-0.1,0.8-0.1,1.3-0.1c0.5,0,0.9,0.1,1.3,0.1c0,0.8,0.1,1.6,0.1,2.3c1.9,0,3.4,0.1,4.6,0.3C91,4.6,91.1,5,91.1,5.5
		c0,0.6-0.1,1-0.1,1.1c-0.3,0.1-1.9,0.2-4.5,0.2c0,0.8,0,1.6,0,2.4c0,0.6,0,1-0.1,1.5c2.5,0,4.4,0.1,5.6,0.2c0,0.3,0.1,0.7,0.1,1V13
		c-0.6,0.2-3.3,0.3-8,0.3c-3.1,0-5.3-0.1-6.6-0.3c-0.1-0.3-0.1-0.7-0.1-1.1s0-0.8,0.1-1.1c1.7,0,3.8-0.1,6.2-0.1c0-0.4,0-0.9,0-1.3
		c0-0.8,0-1.7,0-2.6c-2.9,0-4.5-0.1-4.8-0.2c-0.1-0.3-0.1-0.7-0.1-1.2c0-0.4,0.1-0.8,0.2-1.2c1.5-0.1,3.1-0.1,4.8-0.1
		C83.6,3.3,83.6,2.6,83.7,1.8z M82.7,16.5c-0.7,0.4-1.4,0.6-2.1,0.7c-0.6-0.8-1-1.8-1.1-3c0.6-0.2,1.3-0.4,2-0.6
		C82.1,14.2,82.5,15.2,82.7,16.5z M96.1,8.5c0.1,3.3,0.1,6.6,0.1,9.8c0,3.9-0.1,7.7-0.3,11.2c-0.3,0-0.7,0.1-1.2,0.1
		c-0.4,0-0.8,0-1-0.1c-0.1-3.6-0.2-7.2-0.2-11c0-3.3,0.1-6.6,0.3-10c0.4-0.1,0.7-0.3,1.1-0.3C95.4,8.2,95.7,8.3,96.1,8.5z
		 M105.2,5.9c0,3-0.1,5.8-0.4,8.4c-0.7,0.1-1.6,0.2-2.5,0.2c-0.8,0-1.5,0-2.1-0.1c-0.1-0.7-0.1-1.3-0.1-1.8c0.9,0,1.7-0.1,2.5-0.1
		c0-1.4,0.1-3,0.2-4.7c-3.1-0.3-6-0.7-8.7-1c0-0.9,0.1-1.6,0.3-2.1C97.9,5,101.5,5.4,105.2,5.9z M106.1,17.4
		c-0.3,2.3-0.7,4.6-1.4,7.1c0.9,0.4,1.9,0.8,2.8,1.1c-0.1,0.8-0.4,1.6-0.8,2.3c-1-0.3-1.9-0.6-2.8-0.9c-0.4,1.2-0.9,2.4-1.4,3.7
		c-0.6,0-1.3-0.2-2.1-0.7c0.3-1.3,0.7-2.6,1-3.9c-1.3-0.4-2.4-0.9-3.6-1.5c0.3-0.8,0.6-1.6,0.9-2.3c1.1,0.4,2.3,0.8,3.4,1.2
		c0.3-1.3,0.7-2.6,1-3.8c-2-0.1-3.9-0.3-5.7-0.5c0-0.9,0-1.7,0.2-2.4C101.7,17,104.5,17.1,106.1,17.4z"/>
	<path class="st1" d="M126.6,14.8c-0.4,1.2-0.7,2.2-0.9,2.9c0.4,0,0.8,0.1,1.2,0.1c0.1,0.2,0.1,0.6,0.1,1.1c0,0.6,0,1-0.1,1.1
		c-0.3,0.1-1.7,0.1-4.1,0.1c0,1.2,0.1,2.4,0.1,3.6c1.9,0.1,3.7,0.3,5.6,0.5c0,0.7-0.1,1.4-0.2,2c-1.8,0-3.6,0-5.3-0.1
		c0,1.3,0,2.5,0,3.7c-0.3,0.1-0.7,0.2-1.2,0.2c-0.5,0-0.9,0-1.1-0.1c-0.1-1.4-0.2-2.7-0.3-4c-2.1-0.1-4.1-0.3-6.2-0.5
		c0-0.7,0.1-1.5,0.3-2.2c1.9,0.1,3.9,0.1,5.8,0.3c0-1.2-0.1-2.3-0.1-3.4c-2.4,0-3.7-0.1-4-0.1c-0.1-0.3-0.1-0.7-0.1-1.2
		c0-0.4,0-0.7,0.1-1.1c1.6-0.1,3.4-0.1,5.3-0.1h1.6c0.3-1.3,0.7-2.4,1.1-3.5C125.1,14.2,125.9,14.4,126.6,14.8z M120.7,1.8
		c0.4-0.1,0.8-0.1,1.3-0.1c0.5,0,0.9,0.1,1.3,0.1c0,0.8,0.1,1.6,0.1,2.3c1.9,0,3.4,0.1,4.6,0.3c0.1,0.2,0.1,0.6,0.1,1.1
		c0,0.6-0.1,1-0.1,1.1c-0.3,0.1-1.9,0.2-4.5,0.2c0,0.8,0,1.6,0,2.4c0,0.6,0,1-0.1,1.5c2.5,0,4.4,0.1,5.6,0.2c0,0.3,0.1,0.7,0.1,1V13
		c-0.6,0.2-3.3,0.3-8,0.3c-3.1,0-5.3-0.1-6.6-0.3c-0.1-0.3-0.1-0.7-0.1-1.1s0-0.8,0.1-1.1c1.7,0,3.8-0.1,6.2-0.1c0-0.4,0-0.9,0-1.3
		c0-0.8,0-1.7,0-2.6c-2.9,0-4.5-0.1-4.8-0.2c-0.1-0.3-0.1-0.7-0.1-1.2c0-0.4,0.1-0.8,0.2-1.2c1.5-0.1,3.1-0.1,4.8-0.1
		C120.7,3.3,120.7,2.6,120.7,1.8z M119.8,16.5c-0.7,0.4-1.4,0.6-2.1,0.7c-0.6-0.8-1-1.8-1.1-3c0.6-0.2,1.3-0.4,2-0.6
		C119.1,14.2,119.6,15.2,119.8,16.5z M133.1,8.5c0.1,3.3,0.1,6.6,0.1,9.8c0,3.9-0.1,7.7-0.3,11.2c-0.3,0-0.7,0.1-1.2,0.1
		c-0.4,0-0.8,0-1-0.1c-0.1-3.6-0.2-7.2-0.2-11c0-3.3,0.1-6.6,0.3-10c0.4-0.1,0.7-0.3,1.1-0.3C132.4,8.2,132.8,8.3,133.1,8.5z
		 M142.3,5.9c0,3-0.1,5.8-0.4,8.4c-0.7,0.1-1.6,0.2-2.5,0.2c-0.8,0-1.5,0-2.1-0.1c-0.1-0.7-0.1-1.3-0.1-1.8c0.9,0,1.7-0.1,2.5-0.1
		c0-1.4,0.1-3,0.2-4.7c-3.1-0.3-6-0.7-8.7-1c0-0.9,0.1-1.6,0.3-2.1C135,5,138.6,5.4,142.3,5.9z M143.2,17.4
		c-0.3,2.3-0.7,4.6-1.4,7.1c0.9,0.4,1.9,0.8,2.8,1.1c-0.1,0.8-0.4,1.6-0.8,2.3c-1-0.3-1.9-0.6-2.8-0.9c-0.4,1.2-0.9,2.4-1.4,3.7
		c-0.6,0-1.3-0.2-2.1-0.7c0.3-1.3,0.7-2.6,1-3.9c-1.3-0.4-2.4-0.9-3.6-1.5c0.3-0.8,0.6-1.6,0.9-2.3c1.1,0.4,2.3,0.8,3.4,1.2
		c0.3-1.3,0.7-2.6,1-3.8c-2-0.1-3.9-0.3-5.7-0.5c0-0.9,0-1.7,0.2-2.4C138.7,17,141.6,17.1,143.2,17.4z"/>
</g>
</svg>
