<?xml version="1.0" encoding="utf-8"?>
<!-- Generator: Adobe Illustrator 24.2.3, SVG Export Plug-In . SVG Version: 6.00 Build 0)  -->
<svg version="1.1" xmlns="http://www.w3.org/2000/svg" xmlns:xlink="http://www.w3.org/1999/xlink" x="0px" y="0px"
	 viewBox="0 0 200 154" style="enable-background:new 0 0 200 154;" xml:space="preserve">
<style type="text/css">
	.st0{fill:#FFFFFF;}
	.st1{opacity:0.3;fill:#403867;}
	.st2{fill:#E7E6E9;}
	.st3{fill:#545172;}
	.st4{fill:#FFFDFF;}
	.st5{fill:#F7C4A5;}
	.st6{fill:#898192;}
	.st7{fill:#E58C7E;}
	.st8{fill:#81A6D9;}
	.st9{fill:#7BA859;}
	.st10{fill:#D0CDD3;}
	.st11{fill:#BBDE95;}
	.st12{fill:#3D5539;}
	.st13{fill:#FFC672;}
	.st14{opacity:0.3;}
	.st15{fill:#403867;}
	.st16{fill:#EDD189;}
	.st17{fill:#FBF4EF;}
	.st18{fill:#F9EBCB;}
	.st19{fill:#F4DADA;}
	.st20{fill:#F6FDFF;}
	.st21{fill:#FFF0F7;}
	.st22{fill:#F06F76;}
</style>
<g id="BACKGROUND">
</g>
<g id="OBJECTS">
	<g>
		<g class="st14">
			<polygon class="st15" points="185.9,134.2 185.9,147.3 172.8,147.3 172.8,149.1 185.9,149.1 187.7,149.1 187.7,147.3 
				187.7,134.2 			"/>
			<polygon class="st15" points="22.3,134.2 20.6,134.2 20.6,147.3 20.6,149.1 22.3,149.1 35.5,149.1 35.5,147.3 22.3,147.3 			"/>
			<rect x="22.3" y="31.2" class="st15" width="163.6" height="116.1"/>
		</g>
		<circle class="st4" cx="39.2" cy="21.3" r="4.1"/>
		<path class="st4" d="M39.1,119.1c0,1.4-1.1,2.5-2.5,2.5s-2.5-1.1-2.5-2.5s1.1-2.5,2.5-2.5S39.1,117.7,39.1,119.1z"/>
		<g>
			<polygon class="st16" points="177.7,126.6 177.7,139.8 164.5,139.8 164.5,141.5 177.7,141.5 179.4,141.5 179.4,139.8 
				179.4,126.6 			"/>
			<polygon class="st16" points="14.1,126.6 14.1,139.8 27.2,139.8 27.2,141.5 14.1,141.5 12.3,141.5 12.3,139.8 12.3,126.6 			"/>
			<rect x="14.1" y="23.7" class="st3" width="163.6" height="116.1"/>
			<path class="st17" d="M20.3,21.8c0,0,70.5-14.8,75,0c0,72.5,0,103.4,0,103.4h-75V21.8z"/>
			<polygon class="st4" points="20.3,21.8 20.3,135.4 88.4,135.4 96,122.1 103.2,135.4 171.5,135.4 171.5,21.8 			"/>
			<path class="st6" d="M96,125.5l5.2,9.9h70.5v-13.9C171.8,121.5,97.5,106.1,96,125.5z"/>
			<path class="st6" d="M96,125.5l-5.2,9.9H20.3v-13.9C20.3,121.5,94.6,106.1,96,125.5z"/>
			<rect x="95.3" y="21.8" class="st6" width="1.4" height="103.7"/>
			<path class="st18" d="M89.5,71.1v27c-18.9-3.1-25.7-3.7-44.6-2.5V69.2C44.9,69.2,66.6,67,89.5,71.1z"/>
			<path class="st19" d="M102.8,27.9v15.8c16-1.8,21.5-2.1,37.6-2v-16C140.5,25.7,122.3,24,102.8,27.9z"/>
		</g>
		<g>
			<path class="st1" d="M174.9,34.4h-56.8c-4.8,0-8.7,3.9-8.7,8.7v28.2c0,4.8,3.9,8.7,8.7,8.7h5.4v10.5L134,79.9h40.9
				c4.8,0,8.7-3.9,8.7-8.7V43C183.6,38.3,179.7,34.4,174.9,34.4z"/>
			<g>
				<path class="st20" d="M169.6,30.7h-56.8c-4.8,0-8.7,3.9-8.7,8.7v28.2c0,4.8,3.9,8.7,8.7,8.7h5.4v10.5l10.5-10.5h40.9
					c4.8,0,8.7-3.9,8.7-8.7V39.4C178.3,34.6,174.4,30.7,169.6,30.7z"/>
				<g>
					<path class="st3" d="M128.1,53.5c0,2.9-2.4,5.3-5.3,5.3c-2.9,0-5.3-2.4-5.3-5.3c0-2.9,2.4-5.3,5.3-5.3
						C125.7,48.2,128.1,50.6,128.1,53.5z"/>
					<circle class="st3" cx="141.2" cy="53.5" r="5.3"/>
					<path class="st3" d="M164.9,53.5c0,2.9-2.4,5.3-5.3,5.3c-2.9,0-5.3-2.4-5.3-5.3c0-2.9,2.4-5.3,5.3-5.3
						C162.6,48.2,164.9,50.6,164.9,53.5z"/>
				</g>
			</g>
		</g>
		<g>
			<path class="st1" d="M76.9,9.9H28.7c-3.2,0-5.8,2.6-5.8,5.8V49c0,3.2,2.6,5.8,5.8,5.8h18.7l5.4,9.3l5.4-9.3h18.7
				c3.2,0,5.8-2.6,5.8-5.8V15.7C82.7,12.5,80.1,9.9,76.9,9.9z"/>
			<g>
				<path class="st21" d="M81.5,4.9H33.3c-3.2,0-5.8,2.6-5.8,5.8V44c0,3.2,2.6,5.8,5.8,5.8H52l5.4,9.3l5.4-9.3h18.7
					c3.2,0,5.8-2.6,5.8-5.8V10.7C87.3,7.5,84.7,4.9,81.5,4.9z"/>
				<path class="st22" d="M73.2,14.4c-4.4-4.4-11.4-4.4-15.8,0C53,10,45.9,10,41.6,14.4c-4.4,4.4-4.4,11.4,0,15.8L57.4,46l15.8-15.8
					C77.6,25.8,77.6,18.8,73.2,14.4z"/>
			</g>
		</g>
	</g>
</g>
<g id="DESIGNED_BY_FREEPIK">
</g>
</svg>
