<?xml version="1.0" encoding="utf-8"?>
<!-- Generator: Adobe Illustrator 24.2.3, SVG Export Plug-In . SVG Version: 6.00 Build 0)  -->
<svg version="1.1" xmlns="http://www.w3.org/2000/svg" xmlns:xlink="http://www.w3.org/1999/xlink" x="0px" y="0px"
	 viewBox="0 0 200 150" style="enable-background:new 0 0 200 150;" xml:space="preserve">
<style type="text/css">
	.st0{fill:#FFFFFF;}
	.st1{opacity:0.3;fill:#403867;}
	.st2{fill:#E7E6E9;}
	.st3{fill:#545172;}
	.st4{fill:#FFFDFF;}
	.st5{fill:#F7C4A5;}
	.st6{fill:#898192;}
	.st7{fill:#E58C7E;}
	.st8{fill:#81A6D9;}
	.st9{fill:#7BA859;}
	.st10{fill:#D0CDD3;}
	.st11{fill:#BBDE95;}
	.st12{fill:#3D5539;}
	.st13{fill:#FFC672;}
	.st14{opacity:0.3;}
	.st15{fill:#403867;}
	.st16{fill:#EDD189;}
	.st17{fill:#FBF4EF;}
	.st18{fill:#F9EBCB;}
	.st19{fill:#F4DADA;}
	.st20{fill:#F6FDFF;}
	.st21{fill:#FFF0F7;}
	.st22{fill:#F06F76;}
</style>
<g id="BACKGROUND">
</g>
<g id="OBJECTS">
	<g>
		<path class="st1" d="M182.8,139l-160.5,0c-2.7,0-5-2.2-5-4.9l0-110.6c0-2.7,2.2-5,4.9-5l160.5,0c2.7,0,5,2.2,5,4.9l0,110.6
			C187.8,136.8,185.6,139,182.8,139z"/>
		<g>
			<path class="st2" d="M177.7,131.4l-160.5,0c-2.7,0-5-2.2-5-4.9l0-110.6c0-2.7,2.2-5,4.9-5l160.5,0c2.7,0,5,2.2,5,4.9l0,110.6
				C182.7,129.2,180.5,131.4,177.7,131.4z"/>
			<path class="st3" d="M182.6,15.9c0-2.7-2.2-5-5-4.9L17.2,11c-2.7,0-5,2.2-4.9,5l0,9.5l170.4,0L182.6,15.9z"/>
			<path class="st4" d="M157.4,18.1c0,2.2-1.8,4-4,4c-2.2,0-4-1.8-4-4c0-2.2,1.8-4,4-4C155.6,14.2,157.4,16,157.4,18.1z"/>
			<path class="st4" d="M168.4,18.1c0,2.2-1.8,4-4,4c-2.2,0-4-1.8-4-4c0-2.2,1.8-4,4-4C166.6,14.2,168.4,16,168.4,18.1z"/>
			<path class="st4" d="M179.3,18.1c0,2.2-1.8,4-4,4c-2.2,0-4-1.8-4-4s1.8-4,4-4C177.5,14.2,179.3,15.9,179.3,18.1z"/>
			<rect x="24.2" y="49.8" class="st5" width="89.7" height="52.7"/>
			<rect x="126.2" y="49.8" class="st6" width="38.2" height="4.2"/>
			<rect x="126.2" y="59.4" class="st6" width="38.2" height="4.2"/>
			<rect x="126.2" y="69.1" class="st6" width="38.2" height="4.2"/>
			<rect x="126.2" y="78.8" class="st6" width="38.2" height="4.2"/>
			<rect x="126.2" y="88.5" class="st6" width="38.2" height="4.2"/>
			<rect x="126.2" y="98.2" class="st6" width="38.2" height="4.2"/>
			<rect x="126.2" y="113.3" class="st6" width="38.2" height="4.2"/>
			<rect x="126.2" y="123" class="st6" width="38.2" height="4.2"/>
			<rect x="75.8" y="113.3" class="st6" width="38.2" height="4.2"/>
			<rect x="75.8" y="123" class="st6" width="38.2" height="4.2"/>
			<rect x="24.8" y="113.3" class="st6" width="38.2" height="4.2"/>
			<rect x="24.8" y="123" class="st6" width="38.2" height="4.2"/>
			<g>
				<path class="st6" d="M23.6,32.3c0.6-0.1,1.9-0.2,3.1-0.2c1.5,0,2.4,0.1,3.1,0.6c0.7,0.4,1.3,1.1,1.3,2.1c0,0.9-0.5,1.8-1.7,2.3
					v0c1.2,0.3,2.1,1.2,2.1,2.6c0,1-0.4,1.7-1.1,2.3c-0.8,0.6-2.1,1-4.2,1c-1.2,0-2.1-0.1-2.6-0.2L23.6,32.3z M26,36.4l0.8,0
					c1.3,0,1.9-0.5,1.9-1.3c0-0.8-0.6-1.2-1.7-1.2c-0.5,0-0.8,0-1,0.1L26,36.4z M26,41.1c0.2,0,0.5,0,0.9,0c1.1,0,2-0.4,2-1.5
					c0-1.1-1-1.5-2.2-1.5l-0.8,0L26,41.1z"/>
				<path class="st6" d="M33.1,32.3c0.8-0.1,1.9-0.2,3.2-0.2c1.6,0,2.7,0.2,3.4,0.8c0.6,0.5,1,1.2,1,2.2c0,1.4-1,2.3-1.9,2.6v0
					c0.7,0.3,1.1,1,1.4,2c0.3,1.2,0.7,2.6,0.9,3l-2.5,0c-0.2-0.3-0.4-1.2-0.7-2.5c-0.3-1.3-0.7-1.7-1.7-1.7l-0.7,0l0,4.2l-2.4,0
					L33.1,32.3z M35.5,36.9l0.9,0c1.2,0,1.9-0.6,1.9-1.5c0-1-0.7-1.5-1.8-1.5c-0.6,0-0.9,0-1.1,0.1L35.5,36.9z"/>
				<path class="st6" d="M48.8,38.3l-3.9,0l0,2.5l4.4,0l0,2l-6.8,0l0-10.6l6.5,0l0,2l-4.1,0l0,2.2l3.9,0L48.8,38.3z"/>
				<path class="st6" d="M53.3,40.1l-0.8,2.7l-2.5,0l3.2-10.6l3.1,0l3.3,10.6l-2.6,0l-0.8-2.7L53.3,40.1z M56,38.3L55.4,36
					c-0.2-0.6-0.4-1.4-0.5-2h0c-0.2,0.6-0.3,1.4-0.5,2l-0.6,2.2L56,38.3z"/>
				<path class="st6" d="M61.2,32.2l2.4,0l0,4.7h0c0.2-0.4,0.5-0.8,0.7-1.2l2.4-3.5l2.9,0l-3.5,4.5l3.7,6.1l-2.8,0l-2.6-4.6
					l-0.9,1.1l0,3.5l-2.4,0L61.2,32.2z"/>
				<path class="st6" d="M73.2,32.2l0,10.6l-2.4,0l0-10.6L73.2,32.2z"/>
				<path class="st6" d="M75.3,42.8l0-10.6l2.8,0l2.2,3.9c0.6,1.1,1.3,2.4,1.7,3.6h0c-0.2-1.4-0.2-2.8-0.2-4.4l0-3.1l2.2,0l0,10.6
					l-2.5,0l-2.3-4.1c-0.6-1.1-1.3-2.5-1.8-3.7l0,0c0.1,1.4,0.1,2.9,0.1,4.6l0,3.2L75.3,42.8z"/>
				<path class="st6" d="M95,42.3c-0.7,0.3-2.1,0.6-3.5,0.6c-1.9,0-3.3-0.5-4.3-1.4c-1-0.9-1.5-2.3-1.5-3.9c0-3.5,2.6-5.5,6.1-5.5
					c1.4,0,2.4,0.3,2.9,0.5l-0.5,1.9c-0.6-0.3-1.3-0.5-2.5-0.5c-2,0-3.5,1.1-3.5,3.4c0,2.2,1.4,3.5,3.3,3.5c0.5,0,1-0.1,1.2-0.2
					l0-2.2l-1.6,0l0-1.9l3.9,0L95,42.3z"/>
				<path class="st6" d="M100.1,42.8l0-10.6l2.8,0l2.2,3.9c0.6,1.1,1.3,2.4,1.7,3.6h0c-0.2-1.4-0.2-2.8-0.2-4.4l0-3.1l2.2,0l0,10.6
					l-2.5,0l-2.3-4.1c-0.6-1.1-1.3-2.5-1.8-3.7l0,0c0.1,1.4,0.1,2.9,0.1,4.6l0,3.2L100.1,42.8z"/>
				<path class="st6" d="M117.2,38.3l-3.9,0l0,2.5l4.4,0l0,2l-6.8,0l0-10.6l6.5,0l0,2l-4.1,0l0,2.2l3.9,0L117.2,38.3z"/>
				<path class="st6" d="M121.1,42.7l-2.5-10.6l2.6,0l0.8,4.4c0.2,1.3,0.5,2.6,0.6,3.7h0c0.2-1.1,0.4-2.4,0.7-3.7l0.9-4.3l2.5,0
					l0.9,4.5c0.2,1.2,0.4,2.4,0.6,3.6h0c0.2-1.2,0.4-2.4,0.6-3.7l0.9-4.3l2.4,0l-2.7,10.6l-2.6,0l-0.9-4.6c-0.2-1.1-0.4-2.1-0.5-3.3
					h0c-0.2,1.2-0.4,2.2-0.6,3.3l-1,4.6L121.1,42.7z"/>
				<path class="st6" d="M133.3,40.3c0.6,0.3,1.6,0.7,2.7,0.7c1.1,0,1.7-0.5,1.7-1.1c0-0.7-0.5-1-1.8-1.5c-1.8-0.6-2.9-1.6-2.9-3.1
					c0-1.8,1.5-3.2,4-3.2c1.2,0,2.1,0.3,2.7,0.5l-0.5,1.9c-0.4-0.2-1.2-0.5-2.2-0.5s-1.5,0.5-1.5,1c0,0.7,0.6,1,2,1.5
					c1.9,0.7,2.8,1.7,2.8,3.2c0,1.8-1.4,3.3-4.3,3.3c-1.2,0-2.4-0.3-3-0.6L133.3,40.3z"/>
			</g>
			
				<ellipse transform="matrix(0.2487 -0.9686 0.9686 0.2487 -30.1382 108.1796)" class="st7" cx="54.7" cy="73.5" rx="19.5" ry="19.5"/>
			<rect x="59.2" y="77.2" class="st8" width="43.2" height="11.7"/>
			<polygon class="st9" points="63.4,75.4 75.8,54 88.1,75.4 			"/>
		</g>
	</g>
</g>
<g id="DESIGNED_BY_FREEPIK">
</g>
</svg>
