<?xml version="1.0" encoding="utf-8"?>
<!-- Generator: Adobe Illustrator 24.2.3, SVG Export Plug-In . SVG Version: 6.00 Build 0)  -->
<svg version="1.1" xmlns="http://www.w3.org/2000/svg" xmlns:xlink="http://www.w3.org/1999/xlink" x="0px" y="0px"
	 viewBox="0 0 200 150" style="enable-background:new 0 0 200 150;" xml:space="preserve">
<style type="text/css">
	.st0{fill:#FFFFFF;}
	.st1{opacity:0.3;fill:#403867;}
	.st2{fill:#E7E6E9;}
	.st3{fill:#545172;}
	.st4{fill:#FFFDFF;}
	.st5{fill:#F7C4A5;}
	.st6{fill:#898192;}
	.st7{fill:#E58C7E;}
	.st8{fill:#81A6D9;}
	.st9{fill:#7BA859;}
	.st10{fill:#D0CDD3;}
	.st11{fill:#BBDE95;}
	.st12{fill:#3D5539;}
	.st13{fill:#FFC672;}
	.st14{opacity:0.3;}
	.st15{fill:#403867;}
	.st16{fill:#EDD189;}
	.st17{fill:#FBF4EF;}
	.st18{fill:#F9EBCB;}
	.st19{fill:#F4DADA;}
	.st20{fill:#F6FDFF;}
	.st21{fill:#FFF0F7;}
	.st22{fill:#F06F76;}
</style>
<g id="BACKGROUND">
</g>
<g id="OBJECTS">
	<g>
		<path class="st1" d="M27.6,18.6l153.1-0.1c2.9,0,5.4,2.3,5.5,5.3l4.1,101.2c0.3,8.2-6.2,15-14.4,15.1L28,141.1
			c-9.3,0.1-17-7-17.9-16.2L2.7,48c-0.3-3.5,2.4-6.7,5.9-6.8l13.9-0.5l-0.5-16.4C22,21.2,24.5,18.6,27.6,18.6z"/>
		<path class="st4" d="M34.6,9l153.1-0.1c2.9,0,5.4,2.3,5.5,5.3l4.1,101.2c0.3,8.2-6.2,15-14.4,15.1l-147.9,1.1
			c-9.3,0.1-17-7-17.9-16.2l-7.4-77c-0.3-3.5,2.4-6.7,5.9-6.8L29.6,31l-0.5-16.4C29,11.5,31.5,9,34.6,9z"/>
		<path class="st10" d="M26.8,31l-13.9,0.5c-3.6,0.1-6.3,3.2-5.9,6.8l7.4,77c0.3,3.4,1.6,6.6,3.6,9.2c14.2,2.4,13.2-19.4,13.2-19.4
			L26.8,31z"/>
		<g>
			<g>
				
					<rect x="41.1" y="55.3" transform="matrix(0.9993 -3.827845e-02 3.827845e-02 0.9993 -3.0326 2.5977)" class="st8" width="50.5" height="50.5"/>
				
					<rect x="41.7" y="87.8" transform="matrix(0.9993 -3.827849e-02 3.827849e-02 0.9993 -3.6541 2.6334)" class="st11" width="50.5" height="17.9"/>
				<polygon class="st12" points="52.1,82.7 91.3,72.9 91.8,86.8 52.3,88.3 				"/>
				<polygon class="st9" points="63.2,87.9 41,77.6 41.4,88.7 				"/>
				<path class="st13" d="M62.5,69.3c0.1,3.4-2.5,6.3-6,6.5c-3.4,0.1-6.3-2.5-6.5-6c-0.1-3.4,2.5-6.3,6-6.5
					C59.5,63.2,62.4,65.9,62.5,69.3z"/>
			</g>
			
				<rect x="95.9" y="53.4" transform="matrix(0.9993 -3.827858e-02 3.827858e-02 0.9993 -2.0376 4.4277)" class="st6" width="37.4" height="4.1"/>
			
				<rect x="96.3" y="62.6" transform="matrix(0.9993 -3.827956e-02 3.827956e-02 0.9993 -2.3912 4.4481)" class="st6" width="37.4" height="4.1"/>
			
				<rect x="96.6" y="71.9" transform="matrix(0.9993 -3.827956e-02 3.827956e-02 0.9993 -2.7447 4.4684)" class="st6" width="37.4" height="4.1"/>
			
				<rect x="97" y="81.1" transform="matrix(0.9993 -3.827956e-02 3.827956e-02 0.9993 -3.0983 4.4888)" class="st6" width="37.4" height="4.1"/>
			
				<rect x="97.3" y="90.3" transform="matrix(0.9993 -3.827956e-02 3.827956e-02 0.9993 -3.4503 4.509)" class="st6" width="37.4" height="4.1"/>
			
				<rect x="97.7" y="99.6" transform="matrix(0.9993 -3.827858e-02 3.827858e-02 0.9993 -3.8037 4.5292)" class="st6" width="37.4" height="4.1"/>
			
				<rect x="143.3" y="51.6" transform="matrix(0.9993 -3.828101e-02 3.828101e-02 0.9993 -1.9336 6.2385)" class="st6" width="37.4" height="4.1"/>
			
				<rect x="143.6" y="60.8" transform="matrix(0.9993 -3.827956e-02 3.827956e-02 0.9993 -2.2871 6.2586)" class="st6" width="37.4" height="4.1"/>
			
				<rect x="144" y="70.1" transform="matrix(0.9993 -3.827956e-02 3.827956e-02 0.9993 -2.6406 6.2789)" class="st6" width="37.4" height="4.1"/>
			
				<rect x="144.3" y="79.3" transform="matrix(0.9993 -3.827851e-02 3.827851e-02 0.9993 -2.9941 6.2991)" class="st6" width="37.4" height="4.1"/>
			
				<rect x="144.7" y="88.5" transform="matrix(0.9993 -3.828199e-02 3.828199e-02 0.9993 -3.3464 6.3199)" class="st6" width="37.4" height="4.1"/>
			
				<rect x="145" y="97.8" transform="matrix(0.9993 -3.828107e-02 3.828107e-02 0.9993 -3.6999 6.3401)" class="st6" width="37.4" height="4.1"/>
			
				<rect x="98.4" y="116.8" transform="matrix(0.9993 -3.828101e-02 3.828101e-02 0.9993 -4.4642 4.5675)" class="st6" width="37.4" height="4.1"/>
			
				<rect x="42.6" y="119" transform="matrix(0.9993 -3.828199e-02 3.828199e-02 0.9993 -4.5868 2.4358)" class="st6" width="37.4" height="4.1"/>
			
				<rect x="39.7" y="41.5" transform="matrix(0.9993 -3.827985e-02 3.827985e-02 0.9993 -1.5868 4.2408)" class="st6" width="140.5" height="4.1"/>
			
				<rect x="145.7" y="115" transform="matrix(0.9993 -3.827858e-02 3.827858e-02 0.9993 -4.3598 6.3776)" class="st6" width="37.4" height="4.1"/>
			<g>
				<path class="st6" d="M40.8,35.1l-0.6-14.9l3.9-0.2l3.3,5.3c0.9,1.5,1.9,3.3,2.6,5l0.1,0c-0.3-2-0.4-4-0.5-6.2l-0.2-4.3l3.1-0.1
					l0.6,14.9l-3.5,0.1l-3.4-5.6c-0.9-1.6-2-3.4-2.8-5.1l-0.1,0c0.2,2,0.3,4.1,0.4,6.5l0.2,4.5L40.8,35.1z"/>
				<path class="st6" d="M64.6,27.9l-5.5,0.2l0.1,3.5l6.1-0.2l0.1,2.8L56,34.5l-0.6-14.9l9.2-0.4l0.1,2.8l-5.8,0.2l0.1,3.1l5.5-0.2
					L64.6,27.9z"/>
				<path class="st6" d="M70.3,34l-4.1-14.7l3.6-0.1l1.4,6.1c0.4,1.8,0.8,3.7,1.1,5.1l0,0c0.2-1.6,0.5-3.4,0.8-5.3l1-6.1l3.6-0.1
					l1.4,6.2c0.4,1.7,0.7,3.3,1,5l0,0c0.2-1.7,0.4-3.4,0.7-5.2l1-6.1l3.4-0.1l-3.3,15l-3.6,0.1l-1.5-6.3c-0.3-1.5-0.6-2.9-0.9-4.6
					l0,0c-0.2,1.7-0.4,3.1-0.7,4.6L74,33.8L70.3,34z"/>
				<path class="st6" d="M87.3,29.9c0.9,0.4,2.3,0.8,3.8,0.8c1.5-0.1,2.3-0.7,2.3-1.7c0-0.9-0.8-1.4-2.6-2c-2.5-0.8-4.2-2.1-4.2-4.2
					c-0.1-2.5,1.9-4.6,5.4-4.7c1.7-0.1,2.9,0.2,3.8,0.6l-0.6,2.7c-0.6-0.3-1.7-0.6-3.1-0.6c-1.5,0.1-2.1,0.7-2.1,1.5
					c0,0.9,0.9,1.3,2.8,2c2.7,0.9,3.9,2.2,4,4.3c0.1,2.5-1.7,4.7-5.8,4.8c-1.7,0.1-3.4-0.3-4.2-0.7L87.3,29.9z"/>
			</g>
		</g>
		<g>
			<polygon class="st6" points="19.6,80 29.7,79.6 29.4,75.6 19.4,76 			"/>
			<polygon class="st6" points="19.9,89.2 30.2,88.8 30,84.8 19.8,85.2 			"/>
			<polygon class="st6" points="19.2,70.8 29.1,70.4 28.9,66.3 19.1,66.7 			"/>
			<polygon class="st6" points="18.5,52.3 28,51.9 27.8,47.9 18.4,48.2 			"/>
			<polygon class="st6" points="30.5,94 20.1,94.4 20.3,98.5 30.8,98.1 			"/>
			<polygon class="st6" points="18.9,61.5 28.6,61.2 28.4,57.1 18.7,57.5 			"/>
		</g>
	</g>
</g>
<g id="DESIGNED_BY_FREEPIK">
</g>
</svg>
