<?xml version="1.0" encoding="utf-8"?>
<!-- Generator: Adobe Illustrator 24.2.3, SVG Export Plug-In . SVG Version: 6.00 Build 0)  -->
<svg version="1.1" id="圖層_1" xmlns="http://www.w3.org/2000/svg" xmlns:xlink="http://www.w3.org/1999/xlink" x="0px" y="0px"
	 viewBox="0 0 160 36" style="enable-background:new 0 0 160 36;" xml:space="preserve">
<style type="text/css">
	.st0{enable-background:new    ;}
	.st1{fill:#453528;stroke:#443427;stroke-width:0.5;stroke-miterlimit:10;}
</style>
<g class="st0">
	<path class="st1" d="M12,4.4v-3c0.5-0.1,1.1-0.1,1.7-0.2c0.6,0,1.1,0,1.5,0.1c-0.1,1.1-0.1,2.2-0.1,3.4c2.2,0.2,4.4,0.5,6.7,0.8
		c0,0.8-0.1,1.6-0.2,2.4c-2.2,0-4.4-0.1-6.5-0.2c0,1.1,0,2.1,0,3.1c1.9,0,3.9-0.1,5.8-0.1c0.1,0.4,0.1,0.8,0.1,1.2v1.3
		c-0.8,0.1-1.7,0.2-2.5,0.2c0.1,0.6,0.1,1.2,0.2,1.6c1,0,1.8,0,2.7-0.1c0.2,0.5,0.2,1.2,0.2,1.9c-1.6,0.2-3.4,0.4-5.3,0.4
		c-0.3-0.6-0.4-1.8-0.4-3.6c-1.8,0.2-3.7,0.2-5.4,0.3c-1,3.1-2,6.2-3,9.4c-1-0.1-1.8-0.4-2.5-0.8c0.7-2.9,1.5-5.7,2.5-8.5
		c-0.8,0-1.6,0-2.3,0c-0.2-0.8-0.3-1.7-0.3-2.6c2.3-0.2,4.7-0.4,7.2-0.5V7.4c-2.6-0.2-5.1-0.6-7.7-1V5.2c0-0.3,0-0.7,0.1-1.1
		C6.8,4.1,9.3,4.2,12,4.4z M12.6,28.4c-0.4,1.9-1,3.4-2,4.6c-0.6,0-1.5-0.2-2.4-0.7c0.3-1.6,1-3.2,2-4.7
		C10.9,27.8,11.7,28,12.6,28.4z M12.8,16.6c0.8-0.2,1.7-0.2,2.7-0.2c0,0.7,0,1.3,0.1,2c1,0.1,1.9,0.2,2.6,0.3v2.2
		c-0.8,0-1.6,0-2.4,0c0,0.8,0,1.5,0.1,2.2c0.7,0,1.4-0.1,2.1-0.2c0.2,0.7,0.2,1.6,0.3,2.4c-2.7,0.4-5.7,0.7-8.8,0.8
		c-0.2-0.6-0.3-1.5-0.4-2.4c1.4-0.2,2.8-0.3,4.2-0.4c-0.1-0.8-0.2-1.6-0.2-2.4H9.6c-0.2-0.8-0.2-1.5-0.2-2.3
		c0.9-0.1,2.1-0.2,3.5-0.3C12.9,17.8,12.8,17.2,12.8,16.6z M19,28.6c0,1.2-0.1,2.6-0.2,4.1c-0.3,0.1-0.8,0.2-1.4,0.2
		c-0.6,0-1.1-0.1-1.3-0.3c0-1.8,0.1-3.2,0.2-4.1c0.4,0,0.9-0.1,1.4-0.1C18.1,28.4,18.5,28.5,19,28.6z M26.9,10.4
		c0.4-1.2,0.8-2.3,1.2-3.4c0.9,0.1,1.8,0.4,2.5,0.7c-0.2,1-0.5,2.1-0.7,3c1.8,0.2,3.7,0.5,5.6,0.8c-0.4,2.8-0.9,5.6-1.3,8.2
		c0.6,0.2,1.3,0.3,2,0.5c0,0.7-0.1,1.4-0.4,2.1c-1.7-0.1-3.3-0.4-4.8-1.1c0.3-2.6,0.8-5,1.2-7.5c-1.1-0.1-2.1-0.2-3.2-0.4
		c-0.2,0.6-0.4,1.3-0.6,1.8c-0.2,0.6-0.4,1.2-0.6,1.7c1,0.3,2,0.7,3.1,1c-0.2,0.7-0.4,1.5-0.8,2.3c-1.1-0.2-2.2-0.5-3.1-0.8
		c-0.2,0.5-0.3,1-0.5,1.4c-0.2,0.7-0.5,1.4-0.8,2c-0.9-0.2-1.7-0.4-2.5-0.8c0.3-1.2,0.7-2.4,1-3.5c-0.7-0.2-1.4-0.5-2-0.8
		c0.2-0.8,0.6-1.6,0.9-2.3c0.6,0.2,1.3,0.4,1.9,0.6c0.3-1,0.7-2.1,1-3.1C25,12.7,24,12.5,23,12.3c0.1-0.9,0.2-1.7,0.4-2.2
		C24.5,10.1,25.7,10.2,26.9,10.4z M26.4,31.8c-0.8,0.4-1.5,0.6-2.2,0.7c-0.7-1-1.1-2.2-1.2-3.7c0.6-0.2,1.4-0.4,2.2-0.6
		C25.8,29,26.2,30.2,26.4,31.8z M33.1,31.6c-0.7,0.4-1.4,0.6-2.1,0.7c-0.7-1-1.2-2.1-1.3-3.6c0.6-0.2,1.3-0.4,2.1-0.6
		C32.4,28.9,32.8,30.1,33.1,31.6z"/>
	<path class="st1" d="M52.7,12c0.1,0.4,0.1,0.8,0.1,1.2c0,0.4,0,0.8-0.1,1.1c-0.7,0.2-1.8,0.2-3.3,0.2c-0.6,0-1,0-1.4,0
		c0.2,4.4,0.3,9,0.3,14c-0.3,0.1-0.8,0.2-1.3,0.2c-0.7,0-1.1,0-1.3-0.1c-0.3-6.6-0.5-12.7-0.5-18.4c0.2-0.1,0.6-0.2,1.3-0.2
		c0.6,0,1,0.1,1.2,0.2c0,0.6,0.1,1.3,0.1,1.9c0.4,0,1,0,1.6,0H52.7z M57.3,5.3c0.2,1.4,0.4,2.8,0.4,4.3c0,5.2-0.1,8.8-0.3,10.6
		c-0.9,0.1-3.2,0.2-6.9,0.2c-0.2-0.8-0.2-1.6-0.2-2.4c1.1-0.1,2.7-0.2,4.8-0.2c-0.1-3.4-0.2-6.8-0.2-10.2c-2.5-0.2-5.1-0.4-7.7-0.6
		c0-0.8,0-1.6,0.2-2.4C52.4,4.8,55.7,5,57.3,5.3z M64.5,7c0,1.7,0,3.3,0,4.8c1.3,0.1,2.6,0.2,3.8,0.3c-0.1,0.4-0.1,0.8-0.2,1.2
		c-0.1,0.6-0.2,1-0.2,1.2c-0.9,0-1.8,0-2.7-0.2c-0.3,0-0.5,0-0.8-0.1c0,1.4,0,2.6-0.1,3.7c1.1,0,2.9,0.1,5.5,0.2
		c0.2,0.2,0.2,0.6,0.2,0.9c0,0.4,0,0.7-0.1,1c-1,0.3-2.6,0.4-4.9,0.4c-1.3,0-2.4-0.1-3.4-0.3c-0.2-1.6-0.2-4.2-0.2-7.9
		c0-1.8,0.1-3.6,0.4-5.4c0.4-0.1,0.8-0.2,1.2-0.2C63.6,6.8,64,6.8,64.5,7z M75.3,6.2c0.3,8,0.5,15.3,0.5,21.7
		c-1.7,0.2-3.1,0.3-4.1,0.3c-0.2-0.6-0.2-1.3-0.2-2c0.6-0.2,1.1-0.2,1.6-0.3c0-5.8-0.2-11.5-0.7-17.2c-2.1,0-4.1,0-6.1-0.2
		c-0.1-0.4-0.2-0.8-0.2-1.3c0-0.4,0-0.8,0.2-1.2C71.2,6.1,74.2,6.1,75.3,6.2z"/>
	<path class="st1" d="M88.1,28.6c-0.3,2.3-0.9,4.1-1.8,5.5c-0.6,0-1.3-0.2-2.2-0.6c0.2-2,0.8-3.9,1.8-5.7
		C86.5,28,87.3,28.3,88.1,28.6z M91.6,19.4c0-0.6,0-1.2,0-1.8h-0.6c-2.4,0-4.5-0.2-6.1-0.7c-0.2-2.6-0.4-5.6-0.5-9
		c0.8-0.1,1.6-0.2,2.4-0.2c0.2,2.3,0.4,4.8,0.5,7.3c1.5,0.1,3,0.2,4.3,0.2v-1.8c0-2,0-4.1,0.2-6.2c-0.8-0.1-1.6-0.2-2.4-0.3
		c0-0.8,0-1.5,0.1-2.2C94,4.7,98.2,5,101.9,5.3c0,5.4-0.3,9.4-0.8,11.9c-1,0.2-3.3,0.3-6.9,0.4c0,0.7,0,1.4,0,2
		c1.4,0.1,2.8,0.2,4.1,0.4c0,0.7-0.1,1.4-0.2,2.2c-1.4,0-2.7,0-4-0.1c0,0.6-0.1,1.2-0.1,1.8c1.4-0.1,2.9-0.2,4.4-0.4
		c0.2,0.7,0.2,1.4,0.3,2.2c-3.6,0.6-7.4,0.9-11.4,1.1c-0.2-0.6-0.3-1.4-0.4-2.3c1.6-0.2,3.2-0.4,4.9-0.5c-0.1-0.7-0.1-1.4-0.1-2.2
		c-1.7-0.1-3.3-0.3-4.9-0.5c0-0.8,0-1.5,0.1-2.3C88.5,19.2,90.1,19.3,91.6,19.4z M91,13.3c-0.6,0.3-1.1,0.5-1.7,0.6
		c-0.8-1-1.2-2.4-1.3-3.9c0.5-0.2,1-0.4,1.6-0.5C90.3,10.4,90.7,11.6,91,13.3z M91.8,29.4c0,1.2-0.1,2.6-0.3,4.1
		c-0.3,0.1-0.7,0.2-1.3,0.2c-0.6,0-1-0.1-1.2-0.3c0-1.8,0.1-3.2,0.3-4.1c0.4,0,0.8-0.1,1.3-0.1C91,29.1,91.4,29.2,91.8,29.4z
		 M96.1,32.1c-0.8,0.4-1.5,0.7-2.2,0.8c-0.5-1-0.8-2.3-0.9-3.8c0.6-0.2,1.4-0.4,2.2-0.6C95.6,29.3,95.9,30.5,96.1,32.1z M94.3,13.1
		v2.1c1.6,0,3.1,0,4.5,0c0-2,0.1-4.5,0.3-7.6c-1.8-0.1-3.4-0.2-5-0.3C94.2,9.4,94.3,11.4,94.3,13.1z M98.7,10.2
		c-0.5,1.3-1.1,2.7-2,4c-0.7-0.2-1.4-0.5-1.9-0.9c0.5-1.4,1.2-2.7,2-4C97.6,9.6,98.2,9.8,98.7,10.2z M99.7,31.8
		c-0.6,0.3-1.3,0.6-2,0.6c-0.5-1-0.8-2.2-0.9-3.6c0.6-0.2,1.2-0.4,1.9-0.5C99.3,29.1,99.6,30.3,99.7,31.8z M116.6,22
		c0.2,1.4,0.4,2.9,0.4,4.3c0,3-0.1,4.9-0.2,5.8c-1.3,0.4-3.6,0.6-7,0.6c-3.4,0-5.7-0.2-7-0.7c-0.4-1-0.6-2.6-0.8-5
		c-0.2-1.8-0.3-3.4-0.3-4.7c0.3-0.1,0.8-0.2,1.4-0.2c0.6,0,1,0,1.2,0.1c0.5,2.4,0.7,5,0.7,7.7c1.5,0.2,3.1,0.3,4.7,0.3
		c1.5,0,3-0.1,4.3-0.2c-0.1-1.9-0.1-3.8-0.2-5.8c-1.3-0.1-2.6-0.2-3.7-0.3c-0.9,0-1.9-0.1-2.8-0.4c-0.1-0.5-0.1-0.8-0.1-1.1
		c0-0.3,0-0.7,0.1-1C111.2,21.3,114.3,21.6,116.6,22z M109.4,6.9c0.1,1.8,0.2,3.7,0.3,5.5c0.4,0,0.9,0,1.4,0c2.3,0,4.2,0.1,5.7,0.3
		c0.1,0.2,0.1,0.6,0.1,1.1c0,0.6,0,1-0.1,1.2c-0.4,0.2-2.2,0.2-5.7,0.2h-1.3c0,1.4,0,2.9,0,4.3c-0.3,0.2-0.8,0.2-1.4,0.2
		c-0.5,0-1,0-1.3-0.1c-0.5-4.1-0.7-8.3-0.7-12.6c0.5,0,1-0.1,1.6-0.2C108.5,6.8,109,6.9,109.4,6.9z"/>
	<path class="st1" d="M128.2,9.5c0.2,2.7,0.2,5.2,0.2,7.4c0,2.8-0.1,5.3-0.3,7.4c-0.2,0.1-0.6,0.2-1.3,0.2c-0.5,0-0.8,0-1-0.2
		c-0.3-2.2-0.4-4.6-0.4-7.2c0-2.4,0.1-4.9,0.2-7.6c0.4-0.1,0.8-0.2,1.2-0.2C127.4,9.4,127.9,9.4,128.2,9.5z M138.6,2.9
		c-0.1,4.4-0.3,8.5-0.6,12.2c-1,0.4-2.2,0.6-3.7,0.6s-2.6,0-3.5-0.2c-0.1-0.1-0.2-0.4-0.3-0.9v-1c1.6-0.2,3.2-0.3,4.8-0.5
		c0-0.7,0.1-1.4,0.2-2.2c-2-0.1-3.9-0.3-5.6-0.7c0-0.8,0-1.6,0.1-2.4c1.8,0.1,3.7,0.3,5.7,0.6c0.1-1,0.2-2.2,0.2-3.3
		c-1-0.2-3.7-0.4-8.1-0.8c-0.1-0.4-0.2-0.8-0.2-1.3c0-0.4,0.1-0.8,0.2-1.2C131.8,1.9,135.4,2.2,138.6,2.9z M135.8,17.8
		c-1,1.8-2.4,3.6-4.2,5.5c-0.9-0.2-1.5-0.6-1.9-1.2c0.9-1.8,2.2-3.7,3.9-5.6C134.5,16.8,135.2,17.2,135.8,17.8z M137.2,30.7
		c-0.5,1.2-1.2,2.5-2,3.8c-1-0.2-1.7-0.6-2.4-1.1c0.6-1.3,1.2-2.5,1.9-3.6C135.5,30,136.3,30.3,137.2,30.7z M146.9,22.4
		c0,2.6-0.3,5-0.8,6.9c-4,0-8.4-0.2-13.1-0.7c0-1.9,0.1-3.9,0.4-6.1c0.5,0,1-0.1,1.5-0.1s1,0.1,1.4,0.2c-0.2,1.4-0.2,2.7-0.3,4
		c2.5,0.2,5.1,0.3,7.7,0.4c0.2-0.9,0.3-1.8,0.4-2.6c-2.2-0.1-4.6-0.3-7.1-0.6c0-0.7,0-1.4,0.2-2.2C140.8,21.8,144.1,22.1,146.9,22.4
		z M144.4,6.8c0,0.9,0,1.8,0,2.6c1.5,0,3.1,0.2,4.9,0.4c0,0.8-0.2,1.6-0.4,2.2c-1.8,0-3.3-0.1-4.4-0.2v2.7h6.1
		c0.1,0.4,0.1,0.7,0.1,1c0,0.4,0,0.8-0.1,1c-0.6,0.3-2,0.4-4.3,0.4c-2.2,0-3.7-0.1-4.5-0.3c-0.2-0.7-0.4-2.5-0.4-5.4
		c0-1.4,0.2-2.9,0.3-4.4c0.4-0.1,0.9-0.2,1.3-0.2S143.9,6.8,144.4,6.8z M149.6,20.2c-0.1,0.9-0.4,1.6-1.1,2.2c-2.5-1-4.9-2.1-7-3.2
		c0.3-0.8,0.6-1.6,1-2.1C144.9,18,147.3,19.1,149.6,20.2z M145.4,32.4c1.4,0,2.9-0.2,4.5-0.4c0.1,0.3,0.2,0.6,0.2,1v1.1
		c-2,0.4-4.3,0.7-7,0.7c-0.2-0.9-0.5-2.3-0.8-4.2c0.8-0.2,1.7-0.4,2.6-0.4C145.1,30.9,145.2,31.6,145.4,32.4z M155.2,4.4
		c0.3,7.3,0.5,13.8,0.5,19.6c-1.9,0.2-3.4,0.3-4.5,0.3c-0.2-0.6-0.2-1.3-0.2-2c0.6-0.2,1.3-0.2,2-0.3c0-5.1-0.2-10.2-0.7-15.2
		c-2.3,0-4.6-0.2-6.9-0.6c-0.1-0.4-0.2-0.8-0.2-1.2c0-0.5,0-0.9,0.2-1.2C150.8,3.9,154,4.1,155.2,4.4z"/>
</g>
</svg>
