<?xml version="1.0" encoding="utf-8"?>
<!-- Generator: Adobe Illustrator 24.2.3, SVG Export Plug-In . SVG Version: 6.00 Build 0)  -->
<svg version="1.1" id="圖層_1" xmlns="http://www.w3.org/2000/svg" xmlns:xlink="http://www.w3.org/1999/xlink" x="0px" y="0px"
	 viewBox="0 0 159.9 36" style="enable-background:new 0 0 159.9 36;" xml:space="preserve">
<style type="text/css">
	.st0{fill:#453528;stroke:#453528;stroke-width:0.5;stroke-miterlimit:10;}
</style>
<path class="st0" d="M18.3,10.1c-0.7,2.3-1.3,4.1-1.8,5.5c1.1,0.1,2.1,0.2,2.9,0.2c0.1,0.2,0.2,0.6,0.2,1.2c0,0.6-0.1,1-0.2,1.2
	c-0.4,0.2-2.4,0.2-6,0.2c-5.7,0-8.8,0-9.3-0.2c-0.1-0.3-0.2-0.7-0.2-1.3c0-0.4,0-0.8,0.2-1.2c2.8-0.1,5.9-0.2,9.3-0.2h0.1
	c0.6-2.3,1.4-4.4,2.3-6.2C16.8,9.5,17.6,9.7,18.3,10.1z M11.2,21.9v-2.5c0.2-0.1,0.6-0.2,1.3-0.2c0.6,0,1,0.1,1.2,0.2
	c0.1,0.9,0.2,1.8,0.2,2.6c1.4,0.1,2.9,0.1,4.3,0.2v1.2c0,0.5-0.1,1-0.3,1.5c-1.3,0-2.6,0-3.9,0c0,0.6,0,1.3,0.1,1.9
	c1.7,0.3,3.3,0.8,5,1.5c-0.1,0.8-0.4,1.6-0.7,2.4c-1.6-0.3-3-0.6-4.2-1c0,1.3,0,2.6,0,3.9c-0.3,0.1-0.8,0.2-1.3,0.2
	c-0.7,0-1.2,0-1.3-0.1c-0.1-1.3-0.2-2.6-0.2-3.8c-1.9,1-3.8,1.9-5.6,2.7c-0.6-0.6-1-1.3-1.2-2c2.1-1.3,4.3-2.5,6.7-3.6
	c0-0.7-0.1-1.4-0.1-2c-2,0-3.9-0.1-5.9-0.2c-0.2-0.5-0.2-1-0.2-1.4s0-0.8,0.1-1.3C7.3,21.8,9.2,21.9,11.2,21.9z M14.1,2.4
	c0,1-0.1,2-0.2,3c2.3,0,4.1,0.2,5.6,0.3C19.5,6,19.6,6.4,19.6,7c0,0.6-0.1,1.1-0.2,1.3c-0.4,0.2-2.5,0.2-6.3,0.2
	c-4.8,0-7.5,0-7.9-0.2C5.2,7.9,5.1,7.4,5.1,6.9c0-0.5,0-0.9,0.2-1.3C7,5.5,8.9,5.4,11,5.4C11,4,11.1,3,11.3,2.2
	c0.4,0,0.8-0.1,1.4-0.1C13.2,2.1,13.7,2.2,14.1,2.4z M9.1,13.6c-0.8,0.4-1.5,0.7-2.2,0.8C6,13.2,5.5,11.7,5.4,9.9
	C6,9.6,6.7,9.4,7.6,9.3C8.3,10.2,8.8,11.7,9.1,13.6z M26.9,13c-0.2,1-0.6,2.4-1,4.2c3.2,0.2,6.6,0.4,9.9,0.7c0,0.7-0.1,1.4-0.2,2.2
	c-1.3,0-2.5,0-3.7-0.1c0.2,3.8,0.4,7.6,0.4,11.4c-0.3,0.1-0.7,0.2-1.2,0.2c-0.5,0-0.9,0-1.2,0c-0.5-3.8-0.7-7.7-0.8-11.7
	c-1.3-0.1-2.5-0.2-3.7-0.4c-0.6,2.4-1.2,5.4-2,8.9c-0.9-0.1-1.7-0.4-2.4-0.8c0.6-4.4,1.8-9.5,3.4-15.5C25.2,12.3,26.1,12.6,26.9,13z
	 M34.6,8.2c-3.7,1.1-7.5,1.8-11.5,2c-0.3-0.7-0.4-1.4-0.5-2.2c3.5-1,7.3-1.6,11.5-2C34.5,6.8,34.6,7.5,34.6,8.2z"/>
<path class="st0" d="M55.9,2.7c0-0.7,0-1.4,0.1-2c0.4,0,0.9-0.1,1.4-0.1s1,0.1,1.5,0.2v2.2c2.7,0.2,5.8,0.4,9.1,0.7
	c0.2,1.1,0.4,2.6,0.4,4.4c1,0.1,2,0.1,3,0.2v1c0,0.6,0,1-0.1,1.2c-1,0-2,0-2.9,0c-0.1,1.8-0.2,3-0.5,3.6c-0.6,0.5-2,0.8-4.2,0.8
	c-1.8,0-3.4,0-4.9-0.1c0,0.6,0,1.1,0,1.6c1.5,0,3.1-0.1,4.7-0.2c0.1,0.8,0.2,1.6,0.2,2.5c-1.7,0.1-3.4,0.2-4.9,0.2
	c0,0.6-0.1,1.1-0.1,1.6c2.1,0,4.3-0.1,6.5-0.1c0,0.3,0.1,0.7,0.1,1.1v1.1c-5.4,0.4-10.7,0.6-16,0.6c-0.2-0.7-0.2-1.5-0.2-2.3
	c2.2-0.1,4.5-0.2,6.8-0.3c0-0.6,0-1.1,0-1.6c-1,0-2,0-2.9,0c-0.2-0.8-0.3-1.6-0.3-2.5c1,0,2.1-0.1,3.2-0.2v-1.9
	c-1.3-0.1-2.4-0.3-3.4-0.5C52,13.7,52,13.3,52,13c0-0.5,0-0.9,0.2-1.1c1.1,0.1,2.2,0.1,3.4,0.1c0-0.6,0-1.2,0-1.8
	c-3.4-0.1-6.4-0.3-8.9-0.5c-0.1-0.2-0.1-0.6-0.1-1.2c0-0.4,0-0.8,0.2-1.2c3,0,5.9,0,8.9,0.1c0-0.7,0-1.4,0.1-2.1
	C53.5,5.2,51.3,5,49,4.8c0-0.9,0-1.7,0.2-2.3C51.2,2.5,53.4,2.6,55.9,2.7z M66.4,24.9c0.2,0.7,0.3,2.4,0.3,4.9c0,2-0.1,3.6-0.2,4.5
	c-1.6,0.2-4.2,0.4-7.9,0.4c-2.5,0-4.9-0.2-7.1-0.6c-0.4-0.8-0.5-2.2-0.5-4.2c0-0.9,0.1-2.6,0.4-5c0.3-0.1,0.7-0.2,1.2-0.2
	c0.4,0,0.8,0.1,1.2,0.2v3c1.8,0.2,3.5,0.3,5.2,0.5c-0.1,0.4-0.1,0.7-0.2,1c0,0.5-0.1,0.8-0.2,1.1c-1,0-2.1-0.1-3.1-0.2
	c-0.6-0.1-1.2-0.2-1.8-0.2v1.7c3.3,0.2,6.7,0.3,10,0.3c0.1-0.5,0.2-1.3,0.2-2.4c0-0.8,0-1.6-0.1-2.6c-4.2-0.2-6.7-0.4-7.8-0.6
	C56,26.5,56,26.1,56,25.4c0-0.4,0-0.7,0-1.1C59.5,24.4,63,24.6,66.4,24.9z M58.8,10.3c0,0.6,0,1.2,0,1.8c2.2,0.1,4.3,0.2,6.5,0.2
	c0-0.6,0-1.2,0-1.8C62.9,10.4,60.7,10.4,58.8,10.3z M58.8,7.6c2.1,0.1,4.2,0.2,6.3,0.3c0-0.6,0-1.3,0-2c-2-0.1-4.1-0.2-6.3-0.3
	C58.8,6.3,58.8,6.9,58.8,7.6z"/>
<path class="st0" d="M96.7,15.8c-0.4,1.3-0.7,2.4-1,3.2c0.5,0,0.9,0.1,1.3,0.1c0.1,0.2,0.1,0.6,0.1,1.2c0,0.6,0,1-0.1,1.2
	c-0.3,0.1-1.8,0.2-4.5,0.2c0,1.3,0.1,2.6,0.2,3.9c2,0.2,4,0.3,6,0.6c0,0.8-0.1,1.5-0.2,2.2c-2,0-3.9,0-5.7-0.2c0,1.4,0,2.7,0,4
	c-0.3,0.2-0.8,0.2-1.3,0.2c-0.5,0-0.9,0-1.2-0.1c-0.2-1.5-0.2-2.9-0.3-4.3c-2.2-0.1-4.5-0.3-6.7-0.6c0-0.8,0.1-1.6,0.3-2.4
	c2.1,0.1,4.2,0.2,6.3,0.3c0-1.3-0.1-2.5-0.1-3.7c-2.6,0-4.1-0.1-4.3-0.2c-0.1-0.3-0.1-0.7-0.1-1.3c0-0.4,0-0.8,0.2-1.2
	c1.7-0.1,3.7-0.2,5.8-0.2H93c0.3-1.4,0.8-2.6,1.2-3.8C95.2,15.2,96,15.4,96.7,15.8z M90.4,1.8c0.4-0.1,0.9-0.2,1.4-0.2
	s1,0.1,1.4,0.2c0,0.9,0.1,1.7,0.1,2.4c2,0,3.7,0.2,5,0.3c0.1,0.2,0.2,0.6,0.2,1.2c0,0.6-0.1,1-0.2,1.2c-0.4,0.2-2,0.2-4.9,0.2
	c0,0.9,0,1.8,0,2.6c0,0.6,0,1.1-0.1,1.6c2.7,0,4.7,0.1,6,0.2c0,0.3,0.1,0.7,0.1,1.1v1.2c-0.6,0.2-3.5,0.3-8.7,0.3
	c-3.4,0-5.7-0.1-7.2-0.3c-0.1-0.4-0.2-0.8-0.2-1.2s0-0.8,0.1-1.2c1.8,0,4.1-0.1,6.7-0.1c0-0.5,0-0.9,0-1.4c0-0.9,0-1.8,0-2.8
	c-3.1,0-4.9-0.1-5.2-0.2c-0.1-0.3-0.2-0.7-0.2-1.3c0-0.5,0.1-0.9,0.2-1.3c1.6-0.1,3.3-0.1,5.2-0.2C90.3,3.4,90.3,2.6,90.4,1.8z
	 M89.3,17.6c-0.8,0.4-1.5,0.6-2.2,0.7c-0.7-0.9-1.1-2-1.2-3.3c0.6-0.2,1.4-0.4,2.2-0.6C88.7,15.2,89.1,16.2,89.3,17.6z M103.8,9
	c0.1,3.6,0.2,7.1,0.2,10.6c0,4.2-0.1,8.3-0.4,12.1c-0.3,0-0.7,0.1-1.3,0.1c-0.5,0-0.8,0-1.1-0.1c-0.2-3.8-0.2-7.8-0.2-11.9
	c0-3.5,0.1-7.1,0.4-10.8c0.4-0.2,0.8-0.3,1.2-0.3C103,8.7,103.4,8.8,103.8,9z M113.7,6.2c0,3.3-0.2,6.3-0.5,9.1
	c-0.8,0.2-1.7,0.2-2.7,0.2c-0.9,0-1.6,0-2.2-0.2c-0.1-0.7-0.1-1.4-0.1-2c1,0,1.9-0.1,2.7-0.1c0-1.5,0.1-3.2,0.2-5.1
	c-3.4-0.3-6.5-0.7-9.4-1.1c0-0.9,0.2-1.7,0.3-2.3C105.8,5.2,109.7,5.7,113.7,6.2z M114.7,18.6c-0.3,2.5-0.8,5-1.6,7.6
	c1,0.4,2,0.8,3,1.2c-0.1,0.9-0.4,1.7-0.8,2.5c-1-0.3-2.1-0.6-3-1c-0.5,1.3-1,2.6-1.5,4c-0.7,0-1.4-0.2-2.2-0.7
	c0.4-1.4,0.7-2.8,1.1-4.2c-1.4-0.5-2.6-1-3.9-1.6c0.3-0.9,0.6-1.7,1-2.5c1.2,0.4,2.4,0.8,3.7,1.3c0.4-1.4,0.7-2.8,1.1-4.1
	c-2.1-0.1-4.2-0.3-6.2-0.5c0-1,0-1.8,0.2-2.6C109.8,18.2,112.9,18.4,114.7,18.6z"/>
<path class="st0" d="M136.8,15.8c-0.4,1.3-0.7,2.4-1,3.2c0.5,0,0.9,0.1,1.3,0.1c0.1,0.2,0.1,0.6,0.1,1.2c0,0.6,0,1-0.1,1.2
	c-0.3,0.1-1.8,0.2-4.5,0.2c0,1.3,0.1,2.6,0.2,3.9c2,0.2,4,0.3,6,0.6c0,0.8-0.1,1.5-0.2,2.2c-2,0-3.9,0-5.7-0.2c0,1.4,0,2.7,0,4
	c-0.3,0.2-0.8,0.2-1.3,0.2c-0.5,0-0.9,0-1.2-0.1c-0.2-1.5-0.2-2.9-0.3-4.3c-2.2-0.1-4.5-0.3-6.7-0.6c0-0.8,0.1-1.6,0.3-2.4
	c2.1,0.1,4.2,0.2,6.3,0.3c0-1.3-0.1-2.5-0.1-3.7c-2.6,0-4.1-0.1-4.3-0.2c-0.1-0.3-0.1-0.7-0.1-1.3c0-0.4,0-0.8,0.2-1.2
	c1.7-0.1,3.7-0.2,5.8-0.2h1.8c0.3-1.4,0.8-2.6,1.2-3.8C135.3,15.2,136.1,15.4,136.8,15.8z"/>
<path class="st0" d="M130.5,1.8c0.4-0.1,0.9-0.2,1.4-0.2s1,0.1,1.4,0.2c0,0.9,0.1,1.7,0.1,2.4c2,0,3.7,0.2,5,0.3
	c0.1,0.2,0.2,0.6,0.2,1.2c0,0.6-0.1,1-0.2,1.2c-0.4,0.2-2,0.2-4.9,0.2c0,0.9,0,1.8,0,2.6c0,0.6,0,1.1-0.1,1.6c2.7,0,4.7,0.1,6,0.2
	c0,0.3,0.1,0.7,0.1,1.1v1.2c-0.6,0.2-3.5,0.3-8.7,0.3c-3.4,0-5.7-0.1-7.2-0.3c-0.1-0.4-0.2-0.8-0.2-1.2s0-0.8,0.1-1.2
	c1.8,0,4.1-0.1,6.7-0.1c0-0.5,0-0.9,0-1.4c0-0.9,0-1.8,0-2.8c-3.1,0-4.9-0.1-5.2-0.2C125,6.6,125,6.2,125,5.7c0-0.5,0.1-0.9,0.2-1.3
	c1.6-0.1,3.3-0.1,5.2-0.2C130.4,3.4,130.5,2.6,130.5,1.8z"/>
<path class="st0" d="M129.5,17.6c-0.8,0.4-1.5,0.6-2.2,0.7c-0.7-0.9-1.1-2-1.2-3.3c0.6-0.2,1.4-0.4,2.2-0.6
	C128.8,15.2,129.2,16.2,129.5,17.6z"/>
<path class="st0" d="M143.9,9c0.1,3.6,0.2,7.1,0.2,10.6c0,4.2-0.1,8.3-0.4,12.1c-0.3,0-0.7,0.1-1.3,0.1c-0.5,0-0.8,0-1.1-0.1
	c-0.2-3.8-0.2-7.8-0.2-11.9c0-3.5,0.1-7.1,0.4-10.8c0.4-0.2,0.8-0.3,1.2-0.3C143.1,8.7,143.5,8.8,143.9,9z"/>
<path class="st0" d="M153.8,6.2c0,3.3-0.2,6.3-0.5,9.1c-0.8,0.2-1.7,0.2-2.7,0.2c-0.9,0-1.6,0-2.2-0.2c-0.1-0.7-0.1-1.4-0.1-2
	c1,0,1.9-0.1,2.7-0.1c0-1.5,0.1-3.2,0.2-5.1c-3.4-0.3-6.5-0.7-9.4-1.1c0-0.9,0.2-1.7,0.3-2.3C145.9,5.2,149.8,5.7,153.8,6.2z"/>
<path class="st0" d="M154.8,18.6c-0.3,2.5-0.8,5-1.6,7.6c1,0.4,2,0.8,3,1.2c-0.1,0.9-0.4,1.7-0.8,2.5c-1-0.3-2.1-0.6-3-1
	c-0.5,1.3-1,2.6-1.5,4c-0.7,0-1.4-0.2-2.2-0.7c0.4-1.4,0.7-2.8,1.1-4.2c-1.4-0.5-2.6-1-3.9-1.6c0.3-0.9,0.6-1.7,1-2.5
	c1.2,0.4,2.4,0.8,3.7,1.3c0.4-1.4,0.7-2.8,1.1-4.1c-2.1-0.1-4.2-0.3-6.2-0.5c0-1,0-1.8,0.2-2.6C149.9,18.2,153,18.4,154.8,18.6z"/>
</svg>
