<?xml version="1.0" encoding="utf-8"?>
<!-- Generator: Adobe Illustrator 24.2.3, SVG Export Plug-In . SVG Version: 6.00 Build 0)  -->
<svg version="1.1" id="圖層_1" xmlns="http://www.w3.org/2000/svg" xmlns:xlink="http://www.w3.org/1999/xlink" x="0px" y="0px"
	 viewBox="0 0 159.5 36" style="enable-background:new 0 0 159.5 36;" xml:space="preserve">
<style type="text/css">
	.st0{enable-background:new    ;}
	.st1{fill:#453528;stroke:#453528;stroke-width:0.5;stroke-miterlimit:10;}
</style>
<g class="st0">
	<path class="st1" d="M17.3,6.4c-0.9-1.1-1.6-2.3-2.2-3.5c0.6-0.5,1.4-1,2.2-1.4C18.6,3,19.9,4.7,21,6.5c4,0.2,7.9,0.3,11.8,0.6v1.2
		c0,0.6-0.1,1.1-0.2,1.4c-11,0-19.7-0.2-26.2-0.7C6.3,8.7,6.2,8.3,6.2,7.6c0-0.4,0.1-0.9,0.2-1.4C10.1,6.2,13.7,6.3,17.3,6.4z
		 M20.8,11.9c0,2.7,0.1,5.3,0.1,7.8c2.7,0.1,5.5,0.2,8.5,0.3c0,0.8-0.1,1.7-0.2,2.6c-2.8,0-5.6,0-8.2-0.1v1.6c0,2-0.1,3.9-0.2,5.6
		c2.6-0.1,5.3-0.1,8-0.1c0,0.3,0.1,0.6,0.1,1.1v1.2c-6.4,0.6-12.8,1-19.1,1c-0.2-0.8-0.2-1.7-0.2-2.6c2.6-0.2,5.3-0.4,8.1-0.5
		c-0.1-1.8-0.2-3.6-0.2-5.5v-2C14,22.4,10.6,22.2,7.2,22v-1.4c0-0.4,0-0.8,0.1-1.1c3.1,0,6.5,0.1,10.2,0.2c0-2.6,0.2-5.2,0.3-7.7
		c0.5-0.2,0.9-0.3,1.4-0.3C19.8,11.6,20.3,11.7,20.8,11.9z"/>
	<path class="st1" d="M43.4,19.9c-0.2-0.8-0.2-1.5-0.2-2.3c4.9-0.6,10.1-1,15.6-1c0,0.3,0.1,0.6,0.1,1v1.1c-1.8,0.3-3.6,0.5-5.4,0.7
		c0.1,1,0.1,2,0.2,2.9c1.7-0.2,3.3-0.2,4.8-0.2c0.1,0.3,0.2,0.7,0.2,1c0,0.4-0.1,0.7-0.2,1c-0.8,0.2-2.4,0.5-4.7,0.7
		c0,1.3,0.1,2.5,0.1,3.7c-0.3,0.2-0.8,0.2-1.4,0.2c-0.5,0-1,0-1.3-0.1c-0.4-3-0.6-6-0.6-9C48.2,19.8,45.7,19.9,43.4,19.9z
		 M47.8,23.2c-0.3,1.8-0.6,3.8-1,6.1c6.5,0.7,13.3,1.5,20.5,2.4c-0.1,0.8-0.3,1.5-0.4,2.3c-8.1-0.6-15.8-1.4-23.2-2.7
		c0.4-3.1,0.8-6,1.3-8.4C46,23,46.9,23.1,47.8,23.2z M57.1,3.6c0.1,2.4,0.2,5,0.2,7.8c0,1.1-0.1,2.2-0.2,3.1c-1,0.2-2.5,0.2-4.5,0.2
		c-2.9,0-5.3-0.1-7.4-0.4C45.1,12,45,9.4,45,6.6c0-0.8,0-1.8,0.2-3C47,3.4,49,3.3,51.5,3.3C53.7,3.3,55.6,3.4,57.1,3.6z M47.7,7.4
		c1.2,0,2.6,0.1,4.1,0.3c0,0.8-0.1,1.5-0.3,2.1c-1.4,0-2.7,0-3.7-0.2v2.8h6.8V5.7h-6.8V7.4z M65.6,9.6c0.3-1.1,0.6-2.1,1-3.2
		c-1.9-0.1-3.9-0.2-5.7-0.5V4.6c0-0.4,0-0.7,0.1-1.1c4.1,0,8.9,0.2,14.4,0.7c0,0.8-0.1,1.6-0.2,2.5c-1.9,0-3.8,0-5.7-0.1
		c-0.4,1-0.8,2.1-1.1,3.1c2,0.1,4.1,0.2,6,0.4c0.3,1.5,0.5,3.6,0.5,6.4c0,3.4-0.1,5.9-0.2,7.5c-1.3,0.4-3.8,0.6-7.4,0.6
		c-0.7,2.3-1.3,3.9-1.8,4.8c-1,0-1.9-0.2-2.5-0.6c0.3-1.6,0.8-3,1.3-4.3c-1.3,0-2.4-0.2-3.4-0.4c-0.2-1.8-0.4-4-0.5-6.8
		c0-2,0.1-4.1,0.4-6.5h2.4v2.6c1.2,0.1,2.4,0.2,3.7,0.4c0,0.8-0.1,1.5-0.3,2.2c-1.4,0-2.5,0-3.4-0.2c0,0.6,0,1,0,1.5
		c1.1,0.1,2.3,0.2,3.5,0.4c0,0.8-0.1,1.5-0.3,2.1c-1.2,0-2.3,0-3.2-0.2c0,0.7,0,1.4,0,2c1,0.2,2,0.2,3.2,0.2c2.7,0,4.5-0.1,5.5-0.3
		c0-1.2-0.1-4.3-0.2-9.4c-2.6-0.1-5.1-0.3-7.5-0.6c0-0.8,0-1.5,0.2-2.2C64.8,9.6,65.2,9.6,65.6,9.6z M73.9,27.7
		c-0.3,0.7-0.8,1.3-1.3,1.8c-1.3-0.6-2.5-1.4-3.5-2.2c0.4-0.6,0.8-1.2,1.2-1.8C71.5,26,72.7,26.8,73.9,27.7z"/>
	<path class="st1" d="M95.7,2.7c0-0.7,0-1.4,0.1-2c0.4,0,0.9-0.1,1.4-0.1s1,0.1,1.5,0.2v2.2c2.7,0.2,5.8,0.4,9.1,0.7
		c0.2,1.1,0.4,2.6,0.4,4.4c1,0.1,2,0.1,3,0.2v1c0,0.6,0,1-0.1,1.2c-1,0-2,0-2.9,0c-0.1,1.8-0.2,3-0.5,3.6c-0.6,0.5-2,0.8-4.2,0.8
		c-1.8,0-3.4,0-4.9-0.1c0,0.6,0,1.1,0,1.6c1.5,0,3.1-0.1,4.7-0.2c0.1,0.8,0.2,1.6,0.2,2.5c-1.7,0.1-3.4,0.2-4.9,0.2
		c0,0.6-0.1,1.1-0.1,1.6c2.1,0,4.3-0.1,6.5-0.1c0,0.3,0.1,0.7,0.1,1.1v1.1c-5.4,0.4-10.7,0.6-16,0.6c-0.2-0.7-0.2-1.5-0.2-2.3
		c2.2-0.1,4.5-0.2,6.8-0.3c0-0.6,0-1.1,0-1.6c-1,0-2,0-2.9,0c-0.2-0.8-0.3-1.6-0.3-2.5c1,0,2.1-0.1,3.2-0.2v-1.9
		C94.1,14.4,93,14.2,92,14c-0.1-0.3-0.2-0.7-0.2-1c0-0.5,0-0.9,0.2-1.1c1.1,0.1,2.2,0.1,3.4,0.1c0-0.6,0-1.2,0-1.8
		c-3.4-0.1-6.4-0.3-8.9-0.5c-0.1-0.2-0.1-0.6-0.1-1.2c0-0.4,0-0.8,0.2-1.2c3,0,5.9,0,8.9,0.1c0-0.7,0-1.4,0.1-2.1
		c-2.2-0.2-4.4-0.3-6.7-0.6c0-0.9,0-1.7,0.2-2.3C91,2.5,93.2,2.6,95.7,2.7z M106.3,24.9c0.2,0.7,0.3,2.4,0.3,4.9
		c0,2-0.1,3.6-0.2,4.5c-1.6,0.2-4.2,0.4-7.9,0.4c-2.5,0-4.9-0.2-7.1-0.6c-0.4-0.8-0.5-2.2-0.5-4.2c0-0.9,0.1-2.6,0.4-5
		c0.3-0.1,0.7-0.2,1.2-0.2c0.4,0,0.8,0.1,1.2,0.2v3c1.8,0.2,3.5,0.3,5.2,0.5c-0.1,0.4-0.1,0.7-0.2,1c0,0.5-0.1,0.8-0.2,1.1
		c-1,0-2.1-0.1-3.1-0.2c-0.6-0.1-1.2-0.2-1.8-0.2v1.7c3.3,0.2,6.7,0.3,10,0.3c0.1-0.5,0.2-1.3,0.2-2.4c0-0.8,0-1.6-0.1-2.6
		c-4.2-0.2-6.7-0.4-7.8-0.6c-0.2-0.2-0.2-0.6-0.2-1.2c0-0.4,0-0.7,0-1.1C99.4,24.4,102.9,24.6,106.3,24.9z M98.7,10.3
		c0,0.6,0,1.2,0,1.8c2.2,0.1,4.3,0.2,6.5,0.2c0-0.6,0-1.2,0-1.8C102.7,10.4,100.6,10.4,98.7,10.3z M98.7,7.6
		c2.1,0.1,4.2,0.2,6.3,0.3c0-0.6,0-1.3,0-2c-2-0.1-4.1-0.2-6.3-0.3C98.7,6.3,98.7,6.9,98.7,7.6z"/>
	<path class="st1" d="M132.5,8.1c-1,2.8-2.1,5.6-3.2,8.3c-0.6,1.4-1.1,2.6-1.5,3.6c-0.3,0.8-0.6,1.5-0.9,2c-0.3,0.8-0.7,1.6-1.3,2.6
		c-0.8-0.2-1.6-0.6-2.2-1.2c2.3-5.8,4.5-11.2,6.8-16.1C131.1,7.4,131.8,7.7,132.5,8.1z M138.8,2.7c4.8,0.1,9.1,0.2,12.7,0.4
		c0.3,1,0.5,3.2,0.5,6.5c0,1.5-0.2,2.4-0.4,2.7c-2,0.4-8.3,0.6-18.7,0.6c-0.2-0.2-0.3-0.6-0.3-1.2c0-0.5,0-0.9,0.2-1.2
		c2.5-0.1,7.9-0.2,16.2-0.3c0-0.9,0-2.4,0-4.6c-4.4,0-10.8-0.2-19.3-0.5c0-0.4,0-0.8,0-1.2c0-0.4,0-0.8,0.1-1.2
		C132.8,2.6,135.8,2.7,138.8,2.7z M135.8,30.7c1,0,2.1-0.1,3.3-0.2c0.2,0.4,0.2,0.7,0.2,1.1V33c-1.7,0.2-3.6,0.4-5.8,0.4
		c-0.6-1.5-1.1-3.7-1.6-6.8c0.8-0.2,1.7-0.4,2.7-0.4C135.1,27.7,135.4,29.2,135.8,30.7z M137,16.6c0-0.8,0-1.5,0.1-2.2
		c0.4-0.1,0.8-0.2,1.3-0.2s0.9,0.1,1.2,0.2c0,0.8,0.1,1.6,0.1,2.3c1.5,0,3.1,0.1,4.7,0.2c0.1-0.7,0.2-1.4,0.3-2
		c0.4,0,0.9-0.1,1.4-0.1c0.6,0.1,1,0.2,1.2,0.2c0,0.7-0.1,1.3-0.1,2c1,0,2,0.1,2.9,0.1c0,0.8-0.1,1.6-0.2,2.4c-1,0-2,0-2.9,0
		c-0.1,1-0.2,2-0.4,2.9c1.6,0,3.3,0,5.1,0c0.1,0.3,0.2,0.7,0.2,1.1c0,0.6,0,1.1-0.1,1.3c-6.4-0.2-12.9-0.2-19.6-0.3
		c-0.1-0.8-0.2-1.6-0.2-2.4c1.5,0,3.1,0.1,4.8,0.1c0-0.1,0-0.2,0-0.3c0-1,0-1.9,0-2.9c-1,0-2-0.1-3-0.2v-1.2c0-0.3,0-0.7,0.1-1
		C134.9,16.5,135.9,16.6,137,16.6z M143.8,22.3c0.1-1,0.2-2,0.3-3c-1.4,0-2.9-0.1-4.3-0.2c0,0.9,0,1.7,0,2.5c0,0.2,0,0.4,0,0.6
		C141.1,22.2,142.4,22.3,143.8,22.3z M151.7,26.4c-0.7,1.1-1.4,2.2-2.2,3.2c1.2,0.6,2.4,1.2,3.5,1.9c-0.3,0.6-0.8,1.3-1.3,2
		c-3.9-1.5-7.3-3.2-10.3-5c0.4-0.8,0.8-1.6,1.2-2.3c1.4,0.6,2.8,1.3,4.2,2c0.8-1.1,1.7-2.2,2.6-3.2
		C150.1,25.4,150.9,25.8,151.7,26.4z"/>
</g>
</svg>
