<?xml version="1.0" encoding="utf-8"?>
<!-- Generator: Adobe Illustrator 24.2.3, SVG Export Plug-In . SVG Version: 6.00 Build 0)  -->
<svg version="1.1" id="圖層_1" xmlns="http://www.w3.org/2000/svg" xmlns:xlink="http://www.w3.org/1999/xlink" x="0px" y="0px"
	 viewBox="0 0 163.7 38.8" style="enable-background:new 0 0 163.7 38.8;" xml:space="preserve">
<style type="text/css">
	.st0{enable-background:new    ;}
	.st1{fill:#453528;stroke:#453528;stroke-width:0.5;stroke-miterlimit:10;}
</style>
<g class="st0">
	<path class="st1" d="M5.6,24c-0.2-1.1-0.3-2.5-0.3-4.2c0-2.4,0.1-4.7,0.4-7c0.4-0.1,0.8-0.2,1.3-0.2c0.4,0,0.8,0.1,1.2,0.2
		c0,1.6,0,3.1,0,4.4c0.8,0,1.6,0,2.6,0c0-1.1,0-2.2,0-3.3c-0.4,0-0.8,0-1.1-0.1c-0.1-0.2-0.2-0.6-0.2-1.1c0-0.4,0-0.7,0.2-1h1.1
		c0-1.3,0-2.6,0-4c0.4,0,0.9-0.1,1.5-0.2c0.5,0,1,0,1.3,0.1c0,1.4,0,2.8,0,4.1c2,0,3.8,0.1,5.5,0.2c0.2,1,0.2,3.5,0.2,7.6
		c0,2.7-0.1,4.3-0.3,4.7c-1.1,0.3-2.9,0.5-5.4,0.5c0,1.7,0,3.4,0,5c-0.3,0.2-0.8,0.2-1.3,0.2c-0.5,0-1,0-1.3-0.1
		C11,28.2,11,26.5,11,24.8C8.5,24.7,6.8,24.4,5.6,24z M8.2,22.2c0.4,0.2,1.3,0.2,2.7,0.2c0-1-0.1-1.9-0.1-2.9c-1,0-1.9,0-2.6-0.1
		V22.2z M16.5,22.3c0.1-0.7,0.2-1.6,0.2-2.8c0-1.5,0-3.3-0.1-5.4c-1.1,0-2.1,0-3,0c0,1,0,2.1,0,3.1c0.6,0,1.1,0.1,1.4,0.1
		c0,0.3,0.1,0.6,0.1,1v1c-0.2,0.2-0.6,0.3-1.5,0.3v2.9C15.1,22.4,16,22.4,16.5,22.3z M21,21.2c-0.1-0.4-0.2-0.8-0.2-1.2
		c0-0.4,0-0.8,0.1-1.1c1.9,0,4.3-0.1,7.1-0.1c3.7,0,6.3,0.1,7.9,0.3c0,0.3,0.1,0.7,0.1,1v1.2c-0.6,0.2-3.3,0.2-8,0.2
		c-0.8,0-1.5,0-2.2,0c-0.3,0.5-0.6,1-1,1.6c4.3,0.4,8.6,1.1,13,2v5.4c0,1.8-0.3,3.2-0.7,4.1c-0.2,0.2-1,0.2-2.1,0.2
		c-1.4,0-2.5-0.2-3.4-0.4c-0.1-0.4-0.2-0.7-0.2-1.1c0-0.4,0.1-0.8,0.2-1.1h2.9c0.2-1.6,0.2-3.1,0.2-4.7c-3.9-0.7-7.7-1.5-11.6-2.2
		c-0.5,0.8-1,1.6-1.5,2.4c-1-0.2-1.8-0.4-2.5-0.9c0.7-1.6,1.8-3.4,3.2-5.5C21.9,21.4,21.4,21.3,21,21.2z M26.1,28.8
		c-0.6,1.4-1.4,2.9-2.4,4.6c-1-0.1-1.8-0.3-2.5-0.8c0.6-1.7,1.4-3.3,2.4-4.8C24.6,28.1,25.4,28.4,26.1,28.8z M35.2,5.3
		c0,5.2-0.3,9-0.8,11.4c-0.6,0.2-2.2,0.4-4.9,0.4c-2.6,0-4.9-0.2-6.7-0.8c-0.2-2.8-0.4-6.2-0.4-10.1C23.2,6,24,6,24.8,6
		c0.1,1.3,0.2,2.7,0.2,4c0.5,0,1.2,0,2,0c1.1,0,2,0.1,2.6,0.2c0.1,0.4,0.2,0.8,0.2,1.2c0,0.4,0,0.7-0.1,1h-2.9c-0.7,0-1.3,0-1.8,0
		c0,0.6,0.1,1.1,0.1,1.7c2.5,0.3,4.8,0.4,6.9,0.4c0-1.8,0.1-4,0.3-6.9c-2.2-0.2-4.3-0.4-6.1-0.8c0-0.8,0-1.5,0.1-2.2
		C29.6,4.7,32.6,5,35.2,5.3z M31.1,30.1c-0.6,1.3-1.4,2.7-2.3,4.3c-1-0.1-1.8-0.3-2.5-0.8c0.6-1.6,1.4-3,2.4-4.4
		C29.5,29.4,30.3,29.7,31.1,30.1z"/>
	<path class="st1" d="M45.7,13.6c-0.5-0.6-1-1.4-1.3-2.4c3.8-2,7.5-3.7,11.4-5.2c0.5,0.6,0.9,1.4,1.2,2.2c-0.4,0.2-0.7,0.4-1,0.5
		c1.7,1.5,3.2,3,4.6,4.5c-0.5,0.7-1.2,1.2-2,1.5c-1.9-1.5-3.6-3.1-5.1-4.8C50.9,11.4,48.3,12.6,45.7,13.6z M49.8,27.1
		c-0.3,0.8-0.8,1.4-1.3,1.8c-1.3-0.7-2.4-1.5-3.4-2.5c0.4-0.7,0.8-1.3,1.2-1.8C47.5,25.2,48.7,26.1,49.8,27.1z M56.9,31.3
		c0,0.4-0.1,0.8-0.2,1.1c-1.4,0.4-4.3,0.7-8.6,1c-0.4-0.6-0.5-1.4-0.5-2.4c1.2-0.2,2.3-0.3,3.5-0.4c-0.1-2.1-0.2-4.4-0.2-6.9v-0.5
		c-2.2,0-3.9-0.2-4.9-0.3c-0.1-0.3-0.2-0.7-0.2-1.2c0-0.4,0-0.8,0.1-1.1c1.4,0,3.1-0.1,5-0.1c0-1,0-1.9,0.1-2.8
		c-1.2-0.1-2.4-0.2-3.7-0.4v-1.3c0-0.4,0-0.7,0.1-1.1c2.8,0,6.1,0.2,9.9,0.6c0,0.8-0.1,1.6-0.2,2.5c-1.2,0-2.3,0-3.4-0.1
		c0,1,0.1,1.8,0.1,2.6c2.4,0,4.1,0.1,5.1,0.2c0,0.3,0.1,0.6,0.1,1v1.2c-0.4,0.2-2.1,0.4-5.1,0.4v0.2c0,2.6-0.1,4.9-0.3,7
		c1.1-0.1,2.1-0.1,3.2-0.1C56.8,30.6,56.9,31,56.9,31.3z M59,24.8c-0.2,1.6-0.6,2.9-1.2,3.9c-0.6,0-1.3-0.2-2.2-0.6
		c0.2-1.4,0.5-2.8,1.1-4.1C57.4,24.2,58.2,24.5,59,24.8z M66.7,11.2c-0.2,0.7-0.4,1.4-0.8,2c-2-0.2-3.8-0.7-5.3-1.7
		c0.2-0.8,0.4-1.4,0.7-2.1C63,9.6,64.8,10.2,66.7,11.2z M66,16.3c-0.2,1.5-0.3,3-0.4,4.5h1.2c1.6,0,2.9,0,3.9,0
		c0.1,0.4,0.2,0.7,0.2,1.1c0,0.4,0,0.8-0.1,1.1c-0.9,0.2-2.2,0.2-4.1,0.2c-0.6,0-1,0-1.4,0c-0.1,0.7-0.2,1.4-0.2,2h1.4
		c1.8,0,3.3,0,4.3,0c0.1,0.4,0.2,0.8,0.2,1.2c0,0.4,0,0.7-0.1,1c-1,0.2-2.4,0.2-4.5,0.2c-0.7,0-1.2,0-1.6,0
		c-0.2,1.9-0.5,3.8-0.8,5.6c-0.9-0.1-1.8-0.2-2.6-0.3c0.5-5.8,1.2-11.5,2-17C64.3,16.1,65.2,16.2,66,16.3z M77,15.5
		c0.8,6.1,1.2,11.8,1.2,17.2c-1.2,0.2-2.9,0.4-5,0.4c-0.2-0.8-0.3-1.5-0.3-2c1-0.1,1.8-0.2,2.6-0.3c-0.3-4.2-0.6-8.4-0.9-12.5
		c-2.3-0.1-4.5-0.2-6.7-0.3c-0.1-0.3-0.1-0.8-0.1-1.4c0-0.3,0-0.7,0.1-1.2C71.2,15.4,74.3,15.4,77,15.5z M71.5,5.6
		c0,2.3,0,4.8,0,7.3c-0.3,0.2-0.8,0.4-1.4,0.4c-0.5,0-0.9,0-1.3-0.2c-0.1-2.4-0.1-4.9-0.1-7.3c0.3-0.2,0.8-0.3,1.4-0.4
		C70.7,5.4,71.2,5.5,71.5,5.6z M79,10.7c-1.5,1.2-3,2.1-4.7,2.5c-0.6-0.7-1-1.4-1.3-2.2c1.5-1.1,3.1-2,4.8-2.6
		C78.4,9.2,78.8,10,79,10.7z"/>
	<path class="st1" d="M98.5,4.4c0-0.7,0-1.4,0.1-2c0.4,0,0.9-0.1,1.4-0.1s1,0.1,1.5,0.2v2.2c2.7,0.2,5.8,0.4,9.1,0.7
		c0.2,1.1,0.4,2.6,0.4,4.4c1,0.1,2,0.1,3,0.2v1c0,0.6,0,1-0.1,1.2c-1,0-2,0-2.9,0c-0.1,1.8-0.2,3-0.5,3.6c-0.6,0.5-2,0.8-4.2,0.8
		c-1.8,0-3.4,0-4.9-0.1c0,0.6,0,1.1,0,1.6c1.5,0,3.1-0.1,4.7-0.2c0.1,0.8,0.2,1.6,0.2,2.5c-1.7,0.1-3.4,0.2-4.9,0.2
		c0,0.6-0.1,1.1-0.1,1.6c2.1,0,4.3-0.1,6.5-0.1c0,0.3,0.1,0.7,0.1,1.1v1.1c-5.4,0.4-10.7,0.6-16,0.6c-0.2-0.7-0.2-1.5-0.2-2.3
		c2.2-0.1,4.5-0.2,6.8-0.3c0-0.6,0-1.1,0-1.6c-1,0-2,0-2.9,0C95,20.1,95,19.2,95,18.4c1,0,2.1-0.1,3.2-0.2v-1.9
		c-1.3-0.1-2.4-0.3-3.4-0.5c-0.1-0.3-0.2-0.7-0.2-1c0-0.5,0-0.9,0.2-1.1c1.1,0.1,2.2,0.1,3.4,0.1c0-0.6,0-1.2,0-1.8
		c-3.4-0.1-6.4-0.3-8.9-0.5c-0.1-0.2-0.1-0.6-0.1-1.2c0-0.4,0-0.8,0.2-1.2c3,0,5.9,0,8.9,0.1c0-0.7,0-1.4,0.1-2.1
		c-2.2-0.2-4.4-0.3-6.7-0.6c0-0.9,0-1.7,0.2-2.3C93.8,4.2,96,4.3,98.5,4.4z M109.1,26.7c0.2,0.7,0.3,2.4,0.3,4.9
		c0,2-0.1,3.6-0.2,4.5c-1.6,0.2-4.2,0.4-7.9,0.4c-2.5,0-4.9-0.2-7.1-0.6c-0.4-0.8-0.5-2.2-0.5-4.2c0-0.9,0.1-2.6,0.4-5
		c0.3-0.1,0.7-0.2,1.2-0.2c0.4,0,0.8,0.1,1.2,0.2v3c1.8,0.2,3.5,0.3,5.2,0.5c-0.1,0.4-0.1,0.7-0.2,1c0,0.5-0.1,0.8-0.2,1.1
		c-1,0-2.1-0.1-3.1-0.2c-0.6-0.1-1.2-0.2-1.8-0.2v1.7c3.3,0.2,6.7,0.3,10,0.3c0.1-0.5,0.2-1.3,0.2-2.4c0-0.8,0-1.6-0.1-2.6
		c-4.2-0.2-6.7-0.4-7.8-0.6c-0.2-0.2-0.2-0.6-0.2-1.2c0-0.4,0-0.7,0-1.1C102.2,26.2,105.7,26.4,109.1,26.7z M101.4,12.1
		c0,0.6,0,1.2,0,1.8c2.2,0.1,4.3,0.2,6.5,0.2c0-0.6,0-1.2,0-1.8C105.5,12.2,103.4,12.2,101.4,12.1z M101.5,9.3
		c2.1,0.1,4.2,0.2,6.3,0.3c0-0.6,0-1.3,0-2c-2-0.1-4.1-0.2-6.3-0.3C101.5,8,101.5,8.7,101.5,9.3z"/>
	<path class="st1" d="M133.9,4.6c-0.4,0.7-0.7,1.3-1,1.9c2,0.2,4,0.6,5.9,0.9c0,0.6-0.1,1.4-0.3,2.2c-2.2,0-4.5-0.3-6.9-0.9
		c-1,1.6-1.9,3.1-2.8,4.4c-1-0.2-1.7-0.7-2.3-1.3c0.8-1.5,2.4-4.3,4.8-8.4C132.2,3.7,133.1,4.1,133.9,4.6z M134.9,14.9
		c0,0.4,0.1,0.9,0.1,1.3c1.4-0.1,2.6-0.2,3.9-0.2c0.1,0.3,0.1,0.6,0.1,0.9c0,0.4,0,0.7-0.1,1c-0.8,0.2-2,0.5-3.7,0.7
		c0,0.7,0.1,1.4,0.2,2c1.2-0.1,2.3-0.1,3.5-0.2c0.1,0.7,0.2,1.4,0.2,2.1c-1.2,0.2-2.4,0.3-3.5,0.4c0,0.5,0,0.9,0.1,1.4
		c1.8-0.1,3.5-0.1,5.4-0.1c0,0.3,0,0.6,0,1v1.1c-1.8,0.2-3.5,0.4-5.3,0.5c0,0.6,0,1.2,0,1.7c1.6,0.6,3.1,1.2,4.6,1.8
		c-0.2,0.7-0.6,1.4-1,2.1c-1.3-0.3-2.5-0.7-3.5-1.1c0,1.2,0,2.5,0,3.8c-0.3,0.1-0.7,0.2-1.3,0.2c-0.6,0-1,0-1.2-0.1
		c-0.2-1.6-0.3-3.2-0.4-4.6c-1.3,0.8-2.9,1.6-4.8,2.4c-0.6-0.7-1.1-1.4-1.4-2c1.7-1.1,3.7-2.2,6-3.4c0-0.2,0-0.4,0-0.6
		c-2,0.2-4.1,0.2-6.1,0.2c-0.2-0.7-0.2-1.4-0.2-2.2c2-0.2,4.1-0.4,6.2-0.5c0-0.4-0.1-0.9-0.1-1.3c-1.4,0.1-2.6,0.1-3.9,0.1
		c-0.2-0.6-0.2-1.3-0.2-2c1.3-0.2,2.7-0.3,4.1-0.4c0-0.6,0-1.2,0-1.8c-1.3,0.2-2.8,0.3-4.4,0.4c-0.3-0.5-0.5-1.2-0.5-2.2
		c1.7-0.3,3.3-0.6,4.9-0.8V15c0.2-0.1,0.6-0.2,1.2-0.2C134.3,14.8,134.7,14.8,134.9,14.9z M136,11.8c-0.1,0.7-0.4,1.4-0.7,2
		c-1.3-0.2-2.4-0.5-3.4-1c0.2-0.8,0.4-1.5,0.7-2.1C133.6,11.1,134.7,11.4,136,11.8z M147.8,3.7c-0.2,0.5-0.6,1.2-1,2.1
		c3,0.3,5.8,0.8,8.6,1.3c0,0.6-0.1,1.4-0.3,2.2c-3,0-6.1-0.4-9.3-1.2c-0.6,1.2-1.2,2.7-2,4.3c-0.9-0.2-1.7-0.4-2.4-0.8
		c0.7-2.4,2-5.3,3.9-8.7C146.2,3,147.1,3.3,147.8,3.7z M145.6,16.7c0.1-0.8,0.2-1.5,0.2-2.2c0.4,0,0.8-0.1,1.2-0.1
		c0.4,0,0.8,0.1,1.1,0.2c0,0.7,0,1.4,0,2c1,0,2.1,0,3.2,0c-0.1-0.6-0.1-1.3-0.1-2c0.8-0.2,1.6-0.2,2.3-0.2c0.2,0.8,0.3,1.6,0.4,2.3
		c1,0,2,0.1,3,0.1c0,0.6-0.1,1.3-0.2,2h-2.5c0.1,0.9,0.2,1.7,0.2,2.5c1.2,0,2.4,0,3.6,0c0,0.3,0.1,0.6,0.1,1v1
		c-5.7,0.5-11.2,0.8-16.7,0.8c-0.2-0.6-0.2-1.4-0.2-2.1c1.3-0.1,2.6-0.2,4-0.3c0-1.1,0-2.1,0.1-3c-1.4,0-2.7,0-4-0.1v-1.1
		c0-0.3,0-0.6,0.1-0.9C142.8,16.7,144.2,16.7,145.6,16.7z M156,25.8c0.1,2.1,0.2,4.4,0.2,6.8c0,1.1-0.1,2.1-0.2,3
		c-1,0.1-2.4,0.2-4.4,0.2c-2.9,0-5.4-0.1-7.5-0.3c-0.1-2-0.2-4.3-0.2-6.8c0-0.8,0-1.8,0.2-2.9c1.7-0.1,3.8-0.1,6.3-0.1
		C152.6,25.6,154.5,25.7,156,25.8z M146.5,29.6c1.5,0,3.2,0,5,0c0,0.7-0.1,1.4-0.3,2c-1.9,0-3.5,0-4.7,0v2h6.9v-5.8h-6.9V29.6z
		 M152.4,11.6c-0.1,0.7-0.2,1.4-0.6,2c-1,0-2.4-0.3-4.4-1c0.1-0.8,0.3-1.5,0.6-2.1C149.5,10.8,150.9,11.2,152.4,11.6z M151.6,18.9
		c-1.2,0-2.4,0-3.5-0.1c0,0.9-0.1,1.8-0.2,2.8c1.4,0,2.8-0.1,4.2-0.1C151.8,20.7,151.7,19.8,151.6,18.9z"/>
</g>
</svg>
